<svg width="806" height="435" fill="none" xmlns="http://www.w3.org/2000/svg">
  <g id="undraw_developer_activity_bv83 1" clip-path="url(#clip0)">
    <path id="Vector" opacity=".1" d="M806 279a128 128 0 01-5 35 127 127 0 01-13 31c0 36-24 66-59 81a118 118 0 01-45 9H153c-28 0-55-8-76-21a131 131 0 01-18-13c-24-20-38-49-38-80a127 127 0 01-21-70c0-51 31-96 74-115a123 123 0 0118-7 118 118 0 017-1 124 124 0 0118-3 122 122 0 016 0h9l1-1a187 187 0 013-5 181 181 0 015-9l7-8 1-1a190 190 0 014-5 235 235 0 0113-14C217 32 296 0 386 0c70 0 133 19 182 52a123 123 0 0160-16 126 126 0 01124 139 127 127 0 0154 104z" fill="#6C63FF"/>
    <path id="Vector_2" opacity=".2" d="M166 82v14h-13a218 218 0 0113-14z" fill="#6C63FF"/>
    <path id="Vector_3" opacity=".2" d="M191 78h-18v18h18V78z" fill="#6C63FF"/>
    <path id="Vector_4" opacity=".2" d="M215 78h-18v18h18V78z" fill="#6C63FF"/>
    <path id="Vector_5" opacity=".2" d="M240 78h-18v18h18V78z" fill="#6C63FF"/>
    <path id="Vector_6" opacity=".2" d="M264 78h-18v18h18V78z" fill="#6C63FF"/>
    <path id="Vector_7" opacity=".2" d="M289 78h-18v18h18V78z" fill="#6C63FF"/>
    <path id="Vector_8" d="M313 78h-18v18h18V78z" fill="#6C63FF"/>
    <path id="Vector_9" opacity=".2" d="M338 78h-18v18h18V78z" fill="#6C63FF"/>
    <path id="Vector_10" opacity=".2" d="M363 78h-18v18h18V78z" fill="#6C63FF"/>
    <path id="Vector_11" opacity=".2" d="M387 78h-18v18h18V78z" fill="#6C63FF"/>
    <path id="Vector_12" d="M412 78h-18v18h18V78z" fill="#6C63FF"/>
    <path id="Vector_13" opacity=".2" d="M436 78h-18v18h18V78z" fill="#6C63FF"/>
    <path id="Vector_14" opacity=".2" d="M461 78h-18v18h18V78z" fill="#6C63FF"/>
    <path id="Vector_15" opacity=".2" d="M485 78h-18v18h18V78z" fill="#6C63FF"/>
    <path id="Vector_16" opacity=".2" d="M510 78h-18v18h18V78z" fill="#6C63FF"/>
    <path id="Vector_17" opacity=".2" d="M535 78h-18v18h18V78z" fill="#6C63FF"/>
    <path id="Vector_18" opacity=".2" d="M559 78h-18v18h18V78z" fill="#6C63FF"/>
    <path id="Vector_19" d="M584 78h-18v18h18V78z" fill="#6C63FF"/>
    <path id="Vector_20" d="M608 78h-18v18h18V78z" fill="#6C63FF"/>
    <path id="Vector_21" opacity=".2" d="M633 78h-18v18h18V78z" fill="#6C63FF"/>
    <path id="Vector_22" opacity=".2" d="M657 78h-18v18h18V78z" fill="#6C63FF"/>
    <path id="Vector_23" d="M682 78h-18v18h18V78z" fill="#6C63FF"/>
    <path id="Vector_24" d="M706 78h-18v18h18V78z" fill="#6C63FF"/>
    <path id="Vector_25" d="M141 110v9h-5a162 162 0 015-9z" fill="#6C63FF"/>
    <path id="Vector_26" opacity=".2" d="M166 101h-18v18h18v-18z" fill="#6C63FF"/>
    <path id="Vector_27" d="M191 101h-18v18h18v-18z" fill="#6C63FF"/>
    <path id="Vector_28" opacity=".2" d="M215 101h-18v18h18v-18z" fill="#6C63FF"/>
    <path id="Vector_29" opacity=".7" d="M240 101h-18v18h18v-18z" fill="#6C63FF"/>
    <path id="Vector_30" opacity=".2" d="M264 101h-18v18h18v-18z" fill="#6C63FF"/>
    <path id="Vector_31" opacity=".4" d="M289 101h-18v18h18v-18z" fill="#6C63FF"/>
    <path id="Vector_32" d="M313 101h-18v18h18v-18z" fill="#6C63FF"/>
    <path id="Vector_33" opacity=".4" d="M338 101h-18v18h18v-18z" fill="#6C63FF"/>
    <path id="Vector_34" opacity=".2" d="M363 101h-18v18h18v-18z" fill="#6C63FF"/>
    <path id="Vector_35" opacity=".4" d="M387 101h-18v18h18v-18z" fill="#6C63FF"/>
    <path id="Vector_36" d="M412 101h-18v18h18v-18z" fill="#6C63FF"/>
    <path id="Vector_37" opacity=".4" d="M436 101h-18v18h18v-18z" fill="#6C63FF"/>
    <path id="Vector_38" opacity=".4" d="M461 101h-18v18h18v-18z" fill="#6C63FF"/>
    <path id="Vector_39" opacity=".2" d="M485 101h-18v18h18v-18z" fill="#6C63FF"/>
    <path id="Vector_40" opacity=".4" d="M510 101h-18v18h18v-18z" fill="#6C63FF"/>
    <path id="Vector_41" opacity=".4" d="M535 101h-18v18h18v-18z" fill="#6C63FF"/>
    <path id="Vector_42" opacity=".2" d="M559 101h-18v18h18v-18z" fill="#6C63FF"/>
    <path id="Vector_43" opacity=".2" d="M584 101h-18v18h18v-18z" fill="#6C63FF"/>
    <path id="Vector_44" opacity=".4" d="M608 101h-18v18h18v-18z" fill="#6C63FF"/>
    <path id="Vector_45" opacity=".2" d="M633 101h-18v18h18v-18z" fill="#6C63FF"/>
    <path id="Vector_46" d="M657 101h-18v18h18v-18z" fill="#6C63FF"/>
    <path id="Vector_47" d="M682 101h-18v18h18v-18z" fill="#6C63FF"/>
    <path id="Vector_48" d="M706 101h-18v18h18v-18z" fill="#6C63FF"/>
    <path id="Vector_49" opacity=".2" d="M92 129v13H74v-6a123 123 0 0118-7z" fill="#6C63FF"/>
    <path id="Vector_50" opacity=".2" d="M117 125v17H99v-14l18-3z" fill="#6C63FF"/>
    <path id="Vector_51" d="M141 124h-18v18h18v-18z" fill="#6C63FF"/>
    <path id="Vector_52" opacity=".7" d="M166 124h-18v18h18v-18z" fill="#6C63FF"/>
    <path id="Vector_53" d="M191 124h-18v18h18v-18z" fill="#6C63FF"/>
    <path id="Vector_54" opacity=".7" d="M215 124h-18v18h18v-18z" fill="#6C63FF"/>
    <path id="Vector_55" opacity=".7" d="M240 124h-18v18h18v-18z" fill="#6C63FF"/>
    <path id="Vector_56" opacity=".2" d="M264 124h-18v18h18v-18z" fill="#6C63FF"/>
    <path id="Vector_57" opacity=".4" d="M289 124h-18v18h18v-18z" fill="#6C63FF"/>
    <path id="Vector_58" opacity=".4" d="M313 124h-18v18h18v-18z" fill="#6C63FF"/>
    <path id="Vector_59" d="M338 124h-18v18h18v-18z" fill="#6C63FF"/>
    <path id="Vector_60" opacity=".2" d="M363 124h-18v18h18v-18z" fill="#6C63FF"/>
    <path id="Vector_61" opacity=".4" d="M387 124h-18v18h18v-18z" fill="#6C63FF"/>
    <path id="Vector_62" d="M412 124h-18v18h18v-18z" fill="#6C63FF"/>
    <path id="Vector_63" opacity=".2" d="M436 124h-18v18h18v-18z" fill="#6C63FF"/>
    <path id="Vector_64" opacity=".4" d="M461 124h-18v18h18v-18z" fill="#6C63FF"/>
    <path id="Vector_65" opacity=".2" d="M485 124h-18v18h18v-18z" fill="#6C63FF"/>
    <path id="Vector_66" d="M510 124h-18v18h18v-18z" fill="#6C63FF"/>
    <path id="Vector_67" opacity=".2" d="M535 124h-18v18h18v-18z" fill="#6C63FF"/>
    <path id="Vector_68" opacity=".7" d="M559 124h-18v18h18v-18z" fill="#6C63FF"/>
    <path id="Vector_69" opacity=".7" d="M584 124h-18v18h18v-18z" fill="#6C63FF"/>
    <path id="Vector_70" opacity=".4" d="M608 124h-18v18h18v-18z" fill="#6C63FF"/>
    <path id="Vector_71" opacity=".2" d="M633 124h-18v18h18v-18z" fill="#6C63FF"/>
    <path id="Vector_72" d="M657 124h-18v18h18v-18z" fill="#6C63FF"/>
    <path id="Vector_73" d="M682 124h-18v18h18v-18z" fill="#6C63FF"/>
    <path id="Vector_74" d="M706 124h-18v18h18v-18z" fill="#6C63FF"/>
    <path id="Vector_75" opacity=".2" d="M92 147H74v18h18v-18z" fill="#6C63FF"/>
    <path id="Vector_76" opacity=".2" d="M117 147H99v18h18v-18z" fill="#6C63FF"/>
    <path id="Vector_77" opacity=".2" d="M141 147h-18v18h18v-18z" fill="#6C63FF"/>
    <path id="Vector_78" opacity=".2" d="M166 147h-18v18h18v-18z" fill="#6C63FF"/>
    <path id="Vector_79" d="M191 147h-18v18h18v-18z" fill="#6C63FF"/>
    <path id="Vector_80" opacity=".7" d="M215 147h-18v18h18v-18z" fill="#6C63FF"/>
    <path id="Vector_81" opacity=".7" d="M240 147h-18v18h18v-18z" fill="#6C63FF"/>
    <path id="Vector_82" opacity=".2" d="M264 147h-18v18h18v-18z" fill="#6C63FF"/>
    <path id="Vector_83" opacity=".2" d="M289 147h-18v18h18v-18z" fill="#6C63FF"/>
    <path id="Vector_84" opacity=".4" d="M313 147h-18v18h18v-18z" fill="#6C63FF"/>
    <path id="Vector_85" opacity=".4" d="M338 147h-18v18h18v-18z" fill="#6C63FF"/>
    <path id="Vector_86" d="M363 147h-18v18h18v-18z" fill="#6C63FF"/>
    <path id="Vector_87" opacity=".2" d="M387 147h-18v18h18v-18z" fill="#6C63FF"/>
    <path id="Vector_88" opacity=".4" d="M412 147h-18v18h18v-18z" fill="#6C63FF"/>
    <path id="Vector_89" opacity=".4" d="M436 147h-18v18h18v-18z" fill="#6C63FF"/>
    <path id="Vector_90" opacity=".4" d="M461 147h-18v18h18v-18z" fill="#6C63FF"/>
    <path id="Vector_91" opacity=".4" d="M485 147h-18v18h18v-18z" fill="#6C63FF"/>
    <path id="Vector_92" opacity=".2" d="M510 147h-18v18h18v-18z" fill="#6C63FF"/>
    <path id="Vector_93" opacity=".2" d="M535 147h-18v18h18v-18z" fill="#6C63FF"/>
    <path id="Vector_94" opacity=".2" d="M559 147h-18v18h18v-18z" fill="#6C63FF"/>
    <path id="Vector_95" opacity=".2" d="M584 147h-18v18h18v-18z" fill="#6C63FF"/>
    <path id="Vector_96" opacity=".7" d="M608 147h-18v18h18v-18z" fill="#6C63FF"/>
    <path id="Vector_97" opacity=".7" d="M633 147h-18v18h18v-18z" fill="#6C63FF"/>
    <path id="Vector_98" opacity=".4" d="M657 147h-18v18h18v-18z" fill="#6C63FF"/>
    <path id="Vector_99" opacity=".2" d="M682 147h-18v18h18v-18z" fill="#6C63FF"/>
    <path id="Vector_100" d="M706 147h-18v18h18v-18z" fill="#6C63FF"/>
    <path id="Vector_101" opacity=".2" d="M92 169H74v18h18v-18z" fill="#6C63FF"/>
    <path id="Vector_102" opacity=".2" d="M117 169H99v18h18v-18z" fill="#6C63FF"/>
    <path id="Vector_103" opacity=".4" d="M141 169h-18v18h18v-18z" fill="#6C63FF"/>
    <path id="Vector_104" opacity=".2" d="M166 169h-18v18h18v-18z" fill="#6C63FF"/>
    <path id="Vector_105" opacity=".2" d="M191 169h-18v18h18v-18z" fill="#6C63FF"/>
    <path id="Vector_106" opacity=".7" d="M215 169h-18v18h18v-18z" fill="#6C63FF"/>
    <path id="Vector_107" opacity=".7" d="M240 169h-18v18h18v-18z" fill="#6C63FF"/>
    <path id="Vector_108" opacity=".2" d="M264 169h-18v18h18v-18z" fill="#6C63FF"/>
    <path id="Vector_109" opacity=".2" d="M289 169h-18v18h18v-18z" fill="#6C63FF"/>
    <path id="Vector_110" opacity=".4" d="M313 169h-18v18h18v-18z" fill="#6C63FF"/>
    <path id="Vector_111" d="M338 169h-18v18h18v-18z" fill="#6C63FF"/>
    <path id="Vector_112" opacity=".2" d="M363 169h-18v18h18v-18z" fill="#6C63FF"/>
    <path id="Vector_113" d="M387 169h-18v18h18v-18z" fill="#6C63FF"/>
    <path id="Vector_114" d="M412 169h-18v18h18v-18z" fill="#6C63FF"/>
    <path id="Vector_115" d="M436 169h-18v18h18v-18z" fill="#6C63FF"/>
    <path id="Vector_116" opacity=".2" d="M461 169h-18v18h18v-18z" fill="#6C63FF"/>
    <path id="Vector_117" d="M485 169h-18v18h18v-18z" fill="#6C63FF"/>
    <path id="Vector_118" opacity=".2" d="M510 169h-18v18h18v-18z" fill="#6C63FF"/>
    <path id="Vector_119" opacity=".2" d="M535 169h-18v18h18v-18z" fill="#6C63FF"/>
    <path id="Vector_120" opacity=".2" d="M559 169h-18v18h18v-18z" fill="#6C63FF"/>
    <path id="Vector_121" opacity=".2" d="M584 169h-18v18h18v-18z" fill="#6C63FF"/>
    <path id="Vector_122" opacity=".2" d="M608 169h-18v18h18v-18z" fill="#6C63FF"/>
    <path id="Vector_123" opacity=".7" d="M633 169h-18v18h18v-18z" fill="#6C63FF"/>
    <path id="Vector_124" opacity=".2" d="M657 169h-18v18h18v-18z" fill="#6C63FF"/>
    <path id="Vector_125" opacity=".2" d="M682 169h-18v18h18v-18z" fill="#6C63FF"/>
    <path id="Vector_126" d="M706 169h-18v18h18v-18z" fill="#6C63FF"/>
    <path id="Vector_127" opacity=".2" d="M92 192H74v18h18v-18z" fill="#6C63FF"/>
    <path id="Vector_128" opacity=".2" d="M117 192H99v18h18v-18z" fill="#6C63FF"/>
    <path id="Vector_129" opacity=".2" d="M141 192h-18v18h18v-18z" fill="#6C63FF"/>
    <path id="Vector_130" opacity=".4" d="M166 192h-18v18h18v-18z" fill="#6C63FF"/>
    <path id="Vector_131" opacity=".2" d="M191 192h-18v18h18v-18z" fill="#6C63FF"/>
    <path id="Vector_132" opacity=".2" d="M215 192h-18v18h18v-18z" fill="#6C63FF"/>
    <path id="Vector_133" opacity=".7" d="M240 192h-18v18h18v-18z" fill="#6C63FF"/>
    <path id="Vector_134" opacity=".2" d="M264 192h-18v18h18v-18z" fill="#6C63FF"/>
    <path id="Vector_135" opacity=".2" d="M289 192h-18v18h18v-18z" fill="#6C63FF"/>
    <path id="Vector_136" opacity=".2" d="M313 192h-18v18h18v-18z" fill="#6C63FF"/>
    <path id="Vector_137" d="M338 192h-18v18h18v-18z" fill="#6C63FF"/>
    <path id="Vector_138" opacity=".2" d="M363 192h-18v18h18v-18z" fill="#6C63FF"/>
    <path id="Vector_139" d="M387 192h-18v18h18v-18z" fill="#6C63FF"/>
    <path id="Vector_140" d="M412 192h-18v18h18v-18z" fill="#6C63FF"/>
    <path id="Vector_141" opacity=".2" d="M436 192h-18v18h18v-18z" fill="#6C63FF"/>
    <path id="Vector_142" opacity=".2" d="M461 192h-18v18h18v-18z" fill="#6C63FF"/>
    <path id="Vector_143" opacity=".2" d="M485 192h-18v18h18v-18z" fill="#6C63FF"/>
    <path id="Vector_144" opacity=".2" d="M510 192h-18v18h18v-18z" fill="#6C63FF"/>
    <path id="Vector_145" opacity=".2" d="M535 192h-18v18h18v-18z" fill="#6C63FF"/>
    <path id="Vector_146" opacity=".2" d="M559 192h-18v18h18v-18z" fill="#6C63FF"/>
    <path id="Vector_147" opacity=".2" d="M584 192h-18v18h18v-18z" fill="#6C63FF"/>
    <path id="Vector_148" opacity=".2" d="M608 192h-18v18h18v-18z" fill="#6C63FF"/>
    <path id="Vector_149" opacity=".2" d="M633 192h-18v18h18v-18z" fill="#6C63FF"/>
    <path id="Vector_150" opacity=".2" d="M657 192h-18v18h18v-18z" fill="#6C63FF"/>
    <path id="Vector_151" opacity=".4" d="M682 192h-18v18h18v-18z" fill="#6C63FF"/>
    <path id="Vector_152" d="M706 192h-18v18h18v-18z" fill="#6C63FF"/>
    <path id="Vector_153" opacity=".7" d="M92 215H74v18h18v-18z" fill="#6C63FF"/>
    <path id="Vector_154" opacity=".7" d="M117 215H99v18h18v-18z" fill="#6C63FF"/>
    <path id="Vector_155" opacity=".7" d="M141 215h-18v18h18v-18z" fill="#6C63FF"/>
    <path id="Vector_156" opacity=".7" d="M166 215h-18v18h18v-18z" fill="#6C63FF"/>
    <path id="Vector_157" opacity=".7" d="M191 215h-18v18h18v-18z" fill="#6C63FF"/>
    <path id="Vector_158" opacity=".2" d="M215 215h-18v18h18v-18z" fill="#6C63FF"/>
    <path id="Vector_159" opacity=".2" d="M240 215h-18v18h18v-18z" fill="#6C63FF"/>
    <path id="Vector_160" opacity=".2" d="M264 215h-18v18h18v-18z" fill="#6C63FF"/>
    <path id="Vector_161" opacity=".2" d="M289 215h-18v18h18v-18z" fill="#6C63FF"/>
    <path id="Vector_162" opacity=".2" d="M313 215h-18v18h18v-18z" fill="#6C63FF"/>
    <path id="Vector_163" opacity=".2" d="M338 215h-18v18h18v-18z" fill="#6C63FF"/>
    <path id="Vector_164" d="M363 215h-18v18h18v-18z" fill="#6C63FF"/>
    <path id="Vector_165" opacity=".2" d="M387 215h-18v18h18v-18z" fill="#6C63FF"/>
    <path id="Vector_166" opacity=".2" d="M412 215h-18v18h18v-18z" fill="#6C63FF"/>
    <path id="Vector_167" opacity=".2" d="M436 215h-18v18h18v-18z" fill="#6C63FF"/>
    <path id="Vector_168" d="M461 215h-18v18h18v-18z" fill="#6C63FF"/>
    <path id="Vector_169" opacity=".2" d="M485 215h-18v18h18v-18z" fill="#6C63FF"/>
    <path id="Vector_170" opacity=".2" d="M510 215h-18v18h18v-18z" fill="#6C63FF"/>
    <path id="Vector_171" opacity=".2" d="M535 215h-18v18h18v-18z" fill="#6C63FF"/>
    <path id="Vector_172" opacity=".2" d="M559 215h-18v18h18v-18z" fill="#6C63FF"/>
    <path id="Vector_173" opacity=".2" d="M584 215h-18v18h18v-18z" fill="#6C63FF"/>
    <path id="Vector_174" opacity=".2" d="M608 215h-18v18h18v-18z" fill="#6C63FF"/>
    <path id="Vector_175" opacity=".2" d="M633 215h-18v18h18v-18z" fill="#6C63FF"/>
    <path id="Vector_176" opacity=".2" d="M657 215h-18v18h18v-18z" fill="#6C63FF"/>
    <path id="Vector_177" opacity=".2" d="M682 215h-18v18h18v-18z" fill="#6C63FF"/>
    <path id="Vector_178" d="M706 215h-18v18h18v-18z" fill="#6C63FF"/>
    <path id="Vector_179" d="M518 281a25 25 0 10-1-49 25 25 0 001 49z" fill="#767D9F"/>
    <path id="Vector_180" d="M516 225a477 477 0 016 33v9l-4 7c-2 2-3 5-2 8 1 2 4 4 6 4 8 2 16 1 24-1a38 38 0 009-4l8-8c11-14 19-30 25-45a28 28 0 01-23-10c-3-3-5-8-3-12-5 3-10 3-15 5a53 53 0 00-9 4 549 549 0 00-10 6c-4 2-7 4-12 4z" fill="#FFF1DB"/>
    <path id="Vector_181" d="M568 244c-5 8-10 16-18 21s-19 6-27 1c-4-2-7-6-10-9-4-3-8-5-13-5s-9 4-12 8c-6 6-11 12-14 19-7 13-9 28-9 43l3 45c0 19-3 37-6 55 29-4 58 4 87 7a533 533 0 0065 0 13 13 0 004-5c3-4 4-10 4-15 2-14 2-28 2-41 0-33 1-67-4-99-1-9-2-17-5-24s-8-15-15-19c-5-2-15-7-21-4s-9 16-11 22z" fill="#767D9F"/>
    <path id="Vector_182" d="M570 337c-1-20-6-42 4-60 2-5-6-10-4-15a65 65 0 007-16l1-7c-1-3-5-6-8-8s-5-10-6-14 9 1 13-1c5-2 12-1 18 1 3 2 6 2 10 2l19-1h8c8 0 14 5 18 11l11 19 9 16 5 16 4 13 1 6-2 6a116 116 0 01-14 20c-7 10-16 18-21 29l-4 14a499 499 0 00-7 56 123 123 0 00-26-9 125 125 0 00-13-2l-13-1c-6-2-7-12-8-18-2-9-2-18-2-26v-31z" fill="#4C4981"/>
    <path id="Vector_183" d="M432 299c3 17 6 34 13 50h-1l-2 2-4 3a6 6 0 00-1 1 4 4 0 000 4h-11c-3 0-6 0-9 2-3 3-5 8-5 12a126 126 0 00-1 5 133 133 0 000 19v3a69 69 0 01-38-17 11 11 0 01-2-8v-1a29 29 0 012-6 76 76 0 0114-23l6-9 1-5c3-7 11-11 14-17l2-5a12 12 0 013-4l1-1a209 209 0 0017-15l1 10z" fill="#4C4981"/>
    <path id="Vector_184" d="M503 249l-3 3-2 1a27 27 0 00-5 6v1c-4 6-2 14-1 21a184 184 0 011 28l-1 38a197 197 0 001 22l1 16a569 569 0 012 29v3a90 90 0 010 5 137 137 0 010 6l-2 7a5 5 0 01-1 0h-2a234 234 0 00-47-1 488 488 0 001-15 443 443 0 002-15 432 432 0 001-45 19 19 0 000-3 35 35 0 00-3-6v-1c4-4 7-9 9-14 5-7 10-15 10-24 1-9-3-19-12-22l-7-1c-2 0-7-1-9-3a335 335 0 01-5 4 16 16 0 012-6h1l1-3c4-3 9-3 11-7l2-5c2-5 8-7 11-11 4-3 4-9 7-13a20 20 0 019-7h1c5-3 12-3 18-3l12 1 1 1c3 3-2 10-4 13z" fill="#4C4981"/>
    <path id="Vector_185" d="M433 283a43 43 0 0133 3c5 3 10 7 12 12 5 8 4 17 4 26 0 4 0 8-2 12-2 5-7 8-11 10a30 30 0 01-8 4h-15c-5-1-11-3-14-6l-5-8a4646 4646 0 00-5-13c-2-7-3-13 0-20l6-9 5-11z" fill="#4C4981"/>
    <path id="Vector_186" d="M729 405v21a118 118 0 01-45 9H153c-28 0-55-8-76-21v-32l162-19 95 8 25 2 12 1 27 3 13 1 20 1 3 1 14 1 19 1 27 3 46 4 31 2 53 5h10l1 1h1l13 1 14 1h2l64 6z" fill="#504F60"/>
    <path id="Vector_187" d="M538 404l-203-35-8 40 93 11 29 4 79-16 10-4z" fill="#9C9CA1"/>
    <path id="Vector_188" d="M433 422l102-19a4 4 0 013 0 4 4 0 011 3 4 4 0 01-3 4l-99 18-4-6z" fill="#9C9CA1"/>
    <path id="LH" d="M477 361c3 0 6 0 9-2 4-1 7-5 10-7 7-5 17-5 25-3 8 3 15 9 20 17 3 4 5 11 3 16a21 21 0 01-3 4l-6 8a20 20 0 01-4 4c-2 2-5 3-7 3l-22 1c-12 1-24 5-37 5l-21-3-31-7c-5-1-11-2-14-7l-1-7c-1-7 0-15 4-20 5-4 12-6 17-9 7-4 9-3 16 0a85 85 0 0042 7z" fill="#FFF1DB"/>
    <path id="RH" d="M601 352c-9 3-17 7-26 9-16 3-32 2-47 6-8 2-16 5-24 5l-10-2c-20-5-43-4-59 9-6 4-10 10-15 15a10 10 0 001 13 10 10 0 004 3 61 61 0 0020 5 2363 2363 0 0069-8l14-2c35-4 71 1 107-3l10-2c9-4 13-14 11-23s-8-17-16-21c-7-4-14-6-21-7-7-2-11 0-18 3z" fill="#FFF1DB"/>
    <path id="Vector_189" opacity=".1" d="M677 298c4 5 5 12 4 19l-2 19c0 9 2 17 1 26l-3 18c-2 7-5 15-11 18-9 4-27 2-36 5 1-5 9-12 10-17v-11l-6-12c-5-5-12-9-19-10-7-2-25 0-30 4-1-5 12-9 17-10 2-1 5 0 6-2 4-3 1-8 1-12 1-4 3-7 3-11 1-5-3-11-1-17l2-5c3-6 2-13 0-20-1-3-1-8 1-11 2-4 8 8 11 7 13-1 24-11 34-3 5 4 5 8 7 13s8 8 11 12z" fill="#000"/>
    <path id="Vector_190" d="M679 298c4 5 5 12 4 19l-2 19 2 26-4 18c-2 7-5 15-11 18-9 4-27 2-36 5 1-5 9-12 10-17v-11l-6-12c-5-5-12-9-19-10-7-2-25 0-30 4-1-5 12-9 17-10 2-1 5 0 6-2 4-3 1-8 2-12l2-11c1-5-3-11-1-17l2-5c3-6 2-13 0-20-1-3-1-8 1-11 2-4 6-5 10-5a48 48 0 0135 9c5 4 6 8 8 13s7 8 10 12z" fill="#4C4981"/>
    <path id="Vector_191" d="M213 265l38 141a9 9 0 008 7l172 16a9 9 0 008-3 9 9 0 002-8l-42-170a9 9 0 00-10-7l-168 13a9 9 0 00-8 11z" fill="#9C9CA1"/>
    <path id="Vector_192" d="M555 292a19 19 0 000-38 19 19 0 000 38z" fill="#fff"/>
    <path id="Vector_193" d="M570 238s4 12-8 17l-1 3 7 7s9-17 8-23c0 0-1-6-6-4z" fill="#fff"/>
    <path id="Vector_194" d="M557 292a18 18 0 100-36 18 18 0 000 36z" fill="#6C63FF"/>
    <path id="Vector_195" d="M576 245l-2-5h-5c1-16-3-21-3-21h-5l-8-8v-3c11 2 17 7 20 13 6 11 3 24 3 24z" fill="#6C63FF"/>
    <path id="Vector_196" opacity=".1" d="M565 216v3h-4l-8-8s12 2 12 5z" fill="#000" stroke="#4C4981" stroke-miterlimit="10"/>
    <path id="Vector_197" opacity=".1" d="M576 245l-2-5v-19c5 11 2 24 2 24z" fill="#000" stroke="#4C4981" stroke-miterlimit="10"/>
    <path id="Vector_198" d="M523 282c5-3 5-13-1-22-5-8-13-13-18-11-4 3-4 13 1 22s13 13 18 11z" fill="#fff"/>
    <path id="Vector_199" d="M516 264c6 9 12 15 7 18-5 2-19 1-24-8s-1-21 4-24 8 5 13 14z" fill="#6C63FF"/>
    <path id="Vector_200" opacity=".1" d="M562 200c0 28-19 56-48 56a51 51 0 01-36-15 51 51 0 010-73 51 51 0 0136-15c29 0 48 19 48 47z" fill="#000"/>
    <path id="Vector_201" d="M514 254a51 51 0 100-102 51 51 0 000 102z" fill="#FFF1DB"/>
    <path id="Vector_202" d="M510 180c6 3 10 9 15 12 8 5 18 4 27 2 5-2 10-3 15-2a4 4 0 002 0l2-2c6-18 3-38-6-55-2-4-5-8-9-11-3-3-7-4-10-5a102 102 0 00-21-5 13 13 0 00-3 0l-5 2a48 48 0 01-21 5c-10 1-21-2-29 5-9 7-7 22-13 32-3 7-11 12-12 20a18 18 0 000 7c3 12 15 21 27 21a10 10 0 005-1 12 12 0 003-3c8-9 18-27 33-22z" fill="#444053"/>
    <path id="Vector_203" opacity=".1" d="M571 185l-2 2a4 4 0 01-2 0c-5-2-10 0-15 1-9 3-19 4-27-1-5-3-9-10-15-12-15-6-25 13-33 22a12 12 0 01-3 3 10 10 0 01-5 1c-12 0-24-9-27-21a28 28 0 010-2 18 18 0 000 7c3 12 15 21 27 21a10 10 0 005-1 12 12 0 003-3c8-9 18-27 33-22 6 3 10 9 15 12 8 5 18 4 27 2 5-2 10-3 15-2a4 4 0 002 0l2-2a64 64 0 003-23 63 63 0 01-3 18z" fill="#000"/>
  </g>
  <defs>
    <clipPath id="clip0">
      <path fill="#fff" d="M0 0h806v435H0z"/>
    </clipPath>
  </defs>
</svg>
