<svg width="186" height="99" viewBox="0 0 186 99" fill="none" xmlns="http://www.w3.org/2000/svg">
<circle cx="116.282" cy="26.2816" r="19.5" transform="rotate(27.3676 116.282 26.2816)" fill="#2118B4"/>
<circle cx="88.2816" cy="27.2816" r="19.5" transform="rotate(27.3676 88.2816 27.2816)" fill="#2118B4"/>
<ellipse cx="61.8375" cy="27.0517" rx="19" ry="19.5" transform="rotate(27.3676 61.8375 27.0517)" fill="#2118B4"/>
<circle cx="122.394" cy="26.3936" r="15.1313" transform="rotate(27.3676 122.394 26.3936)" fill="white"/>
<ellipse cx="56.049" cy="26.9912" rx="14.7433" ry="15.1313" transform="rotate(27.3676 56.049 26.9912)" fill="white"/>
<path d="M7.92 70.012H0.504V65.8H21.132V70.012H13.716V91H7.92V70.012ZM27.5251 65.8H44.7691V70.408H33.3211V75.484H43.5451V80.092H33.3211V86.392H44.7691V91H27.5251V65.8ZM62.5944 91.36C60.1944 91.36 58.0944 90.832 56.2944 89.776C54.4944 88.72 53.1024 87.22 52.1184 85.276C51.1584 83.308 50.6784 81.016 50.6784 78.4C50.6784 75.784 51.1584 73.504 52.1184 71.56C53.1024 69.592 54.4944 68.08 56.2944 67.024C58.0944 65.968 60.1944 65.44 62.5944 65.44C64.7064 65.44 66.5304 65.848 68.0664 66.664C69.6024 67.456 70.7304 68.584 71.4504 70.048L68.1384 72.892C66.8904 70.996 65.0664 70.048 62.6664 70.048C60.6264 70.048 59.0784 70.756 58.0224 72.172C56.9904 73.564 56.4744 75.64 56.4744 78.4C56.4744 81.136 56.9904 83.212 58.0224 84.628C59.0544 86.044 60.5664 86.752 62.5584 86.752C65.0784 86.752 66.9384 85.804 68.1384 83.908L71.4504 86.752C70.7304 88.216 69.6024 89.356 68.0664 90.172C66.5304 90.964 64.7064 91.36 62.5944 91.36ZM78.2134 65.8H84.0094V75.844H92.9014V65.8H98.6974V91H92.9014V80.452H84.0094V91H78.2134V65.8ZM113.359 78.112L105.799 65.8H112.315L116.707 73.396L121.099 65.8H127.615L120.055 78.112L127.939 91H121.531L116.707 82.972L111.919 91H105.475L113.359 78.112ZM143.557 91.36C141.157 91.36 139.093 90.844 137.365 89.812C135.637 88.78 134.317 87.292 133.405 85.348C132.493 83.404 132.037 81.088 132.037 78.4C132.037 75.712 132.493 73.396 133.405 71.452C134.317 69.508 135.637 68.02 137.365 66.988C139.093 65.956 141.157 65.44 143.557 65.44C145.957 65.44 148.021 65.956 149.749 66.988C151.477 68.02 152.797 69.508 153.709 71.452C154.621 73.396 155.077 75.712 155.077 78.4C155.077 81.088 154.621 83.404 153.709 85.348C152.797 87.292 151.477 88.78 149.749 89.812C148.021 90.844 145.957 91.36 143.557 91.36ZM143.557 86.788C145.333 86.788 146.725 86.044 147.733 84.556C148.765 83.068 149.281 81.016 149.281 78.4C149.281 75.784 148.765 73.732 147.733 72.244C146.725 70.756 145.333 70.012 143.557 70.012C141.781 70.012 140.377 70.756 139.345 72.244C138.337 73.732 137.833 75.784 137.833 78.4C137.833 81.016 138.337 83.068 139.345 84.556C140.377 86.044 141.781 86.788 143.557 86.788ZM182.804 65.8V91H177.548L167.828 75.556V91H162.068V65.8H167.576L177.044 80.956V65.8H182.804Z" fill="black"/>
</svg>
