<svg width="259" height="201" viewBox="0 0 259 201" fill="none" xmlns="http://www.w3.org/2000/svg">
<g id="pwa 1" clip-path="url(#clip0)">
<path id="Vector" d="M86.126 170.027C92.2625 167.824 95.4433 161.042 93.2307 154.879C91.0181 148.716 84.2498 145.505 78.1134 147.708C71.977 149.911 68.7961 156.693 71.0087 162.857C73.2214 169.02 79.9896 172.23 86.126 170.027Z" fill="#F2F2F2"/>
<path id="Vector_2" d="M87.3464 167.746C93.4829 165.543 96.6637 158.76 94.4511 152.597C92.2385 146.434 85.4702 143.223 79.3338 145.426C73.1974 147.629 70.0165 154.412 72.2291 160.575C74.4418 166.738 81.21 169.949 87.3464 167.746Z" fill="#6C63FF"/>
<path id="Vector_3" d="M225.328 91.6729L87.8554 141.026L87.9907 141.402L225.463 92.0496L225.328 91.6729Z" fill="#3F3D56"/>
<path id="Vector_4" d="M130.049 34.6762L81.2548 52.1934L80.8922 51.1833L58.7669 59.1263L59.1295 60.1364L10.1341 77.7258C9.70064 77.8814 9.30223 78.1212 8.9616 78.4316C8.62096 78.742 8.34477 79.1168 8.14879 79.5346C7.95282 79.9525 7.84089 80.4052 7.81941 80.8669C7.79793 81.3287 7.86732 81.7904 8.0236 82.2257L32.115 149.332C32.4306 150.212 33.0811 150.93 33.9232 151.33C34.7654 151.729 35.7303 151.777 36.6057 151.463L156.521 108.413C157.396 108.099 158.11 107.448 158.506 106.604C158.902 105.76 158.947 104.792 158.631 103.913L134.54 36.8063C134.383 36.371 134.143 35.9705 133.833 35.6279C133.523 35.2852 133.149 35.0071 132.732 34.8093C132.315 34.6115 131.863 34.4979 131.403 34.4751C130.942 34.4523 130.483 34.5206 130.049 34.6762Z" fill="#3F3D56"/>
<path id="Vector_5" d="M131.028 40.9384L13.3618 83.1807L37.295 149.847L154.961 107.605L131.028 40.9384Z" fill="#6C63FF"/>
<path id="Vector_6" d="M71.4415 60.2775C72.108 60.0382 72.4535 59.3015 72.2132 58.6321C71.9729 57.9627 71.2377 57.614 70.5712 57.8532C69.9047 58.0925 69.5592 58.8292 69.7995 59.4986C70.0399 60.168 70.775 60.5168 71.4415 60.2775Z" fill="#6C63FF"/>
<path id="Vector_7" opacity="0.1" d="M121.311 119.685L37.295 149.847L13.3618 83.1807L121.311 119.685Z" fill="black"/>
<path id="Vector_8" d="M53.9153 138.248C60.1619 136.006 63.3998 129.102 61.1475 122.828C58.8952 116.554 52.0054 113.286 45.7589 115.529C39.5123 117.771 36.2743 124.675 38.5266 130.949C40.779 137.223 47.6687 140.491 53.9153 138.248Z" fill="#F2F2F2"/>
<g id="msgpwa">
<path id="Vector_9" d="M123.448 84.2471L112.456 88.1929L113.284 90.4997L124.276 86.5538L123.448 84.2471Z" fill="#3F3D56"/>
<path id="Vector_10" d="M130.288 61.5171L92.7208 75.0038L93.0757 75.9924L130.643 62.5057L130.288 61.5171Z" fill="#3F3D56"/>
<path id="Vector_11" d="M131.412 64.6476L93.8447 78.1343L94.1996 79.1229L131.767 65.6362L131.412 64.6476Z" fill="#3F3D56"/>
<path id="Vector_12" d="M132.536 67.7782L94.9686 81.2649L95.3235 82.2535L132.891 68.7668L132.536 67.7782Z" fill="#3F3D56"/>
<path id="Vector_13" d="M133.66 70.9088L96.0925 84.3955L96.4474 85.3841L134.015 71.8974L133.66 70.9088Z" fill="#3F3D56"/>
<path id="Vector_14" d="M134.784 74.0394L97.2164 87.526L97.5713 88.5146L135.139 75.028L134.784 74.0394Z" fill="#3F3D56"/>
</g>
<path id="Vector_15" d="M124.314 44.8756L119.72 46.5246L121.377 51.1381L125.97 49.4891L124.314 44.8756Z" fill="#F2F2F2"/>
<path id="Vector_16" d="M128.872 50.8654L123.294 52.8678L121.283 47.2657L126.86 45.2634L128.872 50.8654ZM123.449 52.5372L128.542 50.7089L126.705 45.594L121.613 47.4223L123.449 52.5372Z" fill="#3F3D56"/>
<path id="Vector_17" d="M162.255 103.618L150.771 107.74L150.473 106.909C150.465 106.888 150.453 106.868 150.438 106.851C150.422 106.834 150.404 106.82 150.383 106.81C150.362 106.8 150.34 106.795 150.317 106.793C150.294 106.792 150.271 106.796 150.25 106.803L146.313 108.217C146.291 108.225 146.271 108.237 146.254 108.252C146.237 108.267 146.224 108.286 146.214 108.307C146.204 108.328 146.199 108.35 146.198 108.373C146.196 108.396 146.2 108.419 146.208 108.441L146.506 109.272L144.045 110.155L143.747 109.324C143.739 109.302 143.727 109.282 143.712 109.265C143.696 109.248 143.678 109.235 143.657 109.225C143.636 109.215 143.614 109.209 143.591 109.208C143.568 109.207 143.545 109.21 143.524 109.218L139.587 110.632C139.565 110.639 139.545 110.651 139.528 110.667C139.511 110.682 139.498 110.701 139.488 110.721C139.478 110.742 139.473 110.765 139.472 110.788C139.47 110.811 139.474 110.834 139.482 110.855L139.78 111.686L137.319 112.57L137.021 111.739C137.013 111.717 137.001 111.697 136.986 111.68C136.97 111.663 136.952 111.649 136.931 111.639C136.91 111.63 136.888 111.624 136.865 111.623C136.842 111.622 136.819 111.625 136.798 111.633L132.861 113.046C132.839 113.054 132.819 113.066 132.802 113.081C132.785 113.097 132.772 113.115 132.762 113.136C132.752 113.157 132.747 113.179 132.746 113.202C132.744 113.225 132.748 113.248 132.756 113.27L133.054 114.101L130.593 114.984L130.295 114.153C130.287 114.132 130.275 114.112 130.26 114.095C130.244 114.078 130.226 114.064 130.205 114.054C130.184 114.044 130.162 114.039 130.139 114.037C130.116 114.036 130.093 114.04 130.072 114.047L126.135 115.461C126.113 115.469 126.093 115.481 126.076 115.496C126.059 115.511 126.046 115.53 126.036 115.551C126.026 115.572 126.021 115.594 126.019 115.617C126.018 115.64 126.022 115.663 126.03 115.685L126.328 116.516L123.867 117.399L123.569 116.568C123.561 116.546 123.549 116.526 123.534 116.509C123.518 116.492 123.5 116.478 123.479 116.469C123.458 116.459 123.436 116.453 123.413 116.452C123.39 116.451 123.367 116.454 123.346 116.462L119.409 117.876C119.387 117.883 119.367 117.895 119.35 117.911C119.333 117.926 119.32 117.945 119.31 117.965C119.3 117.986 119.295 118.009 119.293 118.032C119.292 118.055 119.296 118.078 119.304 118.099L119.602 118.93L117.141 119.814L116.843 118.983C116.835 118.961 116.823 118.941 116.808 118.924C116.792 118.907 116.774 118.893 116.753 118.883C116.732 118.873 116.71 118.868 116.687 118.867C116.664 118.866 116.641 118.869 116.62 118.877L112.683 120.29C112.661 120.298 112.641 120.31 112.624 120.325C112.607 120.341 112.594 120.359 112.584 120.38C112.574 120.401 112.569 120.423 112.567 120.446C112.566 120.469 112.57 120.492 112.578 120.514L112.876 121.345L110.415 122.228L110.117 121.397C110.109 121.376 110.097 121.356 110.082 121.339C110.066 121.322 110.048 121.308 110.027 121.298C110.006 121.288 109.984 121.282 109.961 121.281C109.938 121.28 109.915 121.284 109.894 121.291L79.0524 132.363C79.0309 132.371 79.0111 132.383 78.9942 132.398C78.9772 132.414 78.9635 132.433 78.9537 132.453C78.944 132.474 78.9384 132.497 78.9374 132.52C78.9363 132.542 78.9398 132.565 78.9475 132.587L79.2459 133.418L76.7851 134.301L76.4868 133.47C76.479 133.449 76.4671 133.429 76.4517 133.412C76.4362 133.395 76.4176 133.381 76.3969 133.371C76.3762 133.361 76.3537 133.356 76.3309 133.355C76.308 133.353 76.2851 133.357 76.2636 133.365L72.3264 134.778C72.3049 134.786 72.2851 134.798 72.2681 134.813C72.2512 134.829 72.2375 134.847 72.2277 134.868C72.218 134.889 72.2124 134.911 72.2114 134.934C72.2103 134.957 72.2137 134.98 72.2215 135.002L72.5198 135.833L70.0591 136.716L69.7608 135.885C69.753 135.863 69.7411 135.844 69.7256 135.827C69.7102 135.81 69.6916 135.796 69.6709 135.786C69.6502 135.776 69.6277 135.77 69.6049 135.769C69.582 135.768 69.5591 135.772 69.5376 135.779L65.6004 137.193C65.5788 137.2 65.559 137.212 65.5421 137.228C65.5252 137.243 65.5114 137.262 65.5017 137.283C65.492 137.303 65.4864 137.326 65.4853 137.349C65.4843 137.372 65.4877 137.395 65.4955 137.416L65.7938 138.247L63.3331 139.131L63.0348 138.3C63.027 138.278 63.0151 138.258 62.9996 138.241C62.9842 138.224 62.9656 138.21 62.9449 138.2C62.9242 138.191 62.9017 138.185 62.8788 138.184C62.856 138.183 62.8331 138.186 62.8116 138.194L58.8744 139.607C58.8528 139.615 58.833 139.627 58.8161 139.642C58.7992 139.658 58.7854 139.676 58.7757 139.697C58.766 139.718 58.7604 139.741 58.7593 139.763C58.7583 139.786 58.7617 139.809 58.7695 139.831L59.0678 140.662L56.6071 141.545L56.3087 140.714C56.301 140.693 56.289 140.673 56.2736 140.656C56.2582 140.639 56.2396 140.625 56.2189 140.615C56.1981 140.605 56.1757 140.6 56.1528 140.599C56.13 140.597 56.1071 140.601 56.0855 140.609L52.1484 142.022C52.1268 142.03 52.107 142.042 52.0901 142.057C52.0731 142.072 52.0594 142.091 52.0497 142.112C52.0399 142.133 52.0344 142.155 52.0333 142.178C52.0322 142.201 52.0357 142.224 52.0435 142.246L52.3418 143.077L49.8811 143.96L49.5827 143.129C49.575 143.107 49.563 143.088 49.5476 143.07C49.5322 143.053 49.5136 143.04 49.4928 143.03C49.4721 143.02 49.4497 143.014 49.4268 143.013C49.4039 143.012 49.3811 143.015 49.3595 143.023L45.4223 144.437C45.4008 144.444 45.381 144.456 45.3641 144.472C45.3471 144.487 45.3334 144.506 45.3237 144.527C45.3139 144.547 45.3084 144.57 45.3073 144.593C45.3062 144.616 45.3097 144.639 45.3174 144.66L45.6158 145.491L43.155 146.375L42.8567 145.544C42.8489 145.522 42.837 145.502 42.8216 145.485C42.8062 145.468 42.7876 145.454 42.7668 145.444C42.7461 145.435 42.7237 145.429 42.7008 145.428C42.6779 145.427 42.655 145.43 42.6335 145.438L38.6963 146.851C38.6748 146.859 38.655 146.871 38.638 146.886C38.6211 146.902 38.6074 146.92 38.5976 146.941C38.5879 146.962 38.5823 146.984 38.5813 147.007C38.5802 147.03 38.5837 147.053 38.5914 147.075L38.8898 147.906L31.3435 150.615C30.2993 150.99 29.4474 151.766 28.9753 152.773C28.5032 153.779 28.4494 154.934 28.8259 155.983L29.4679 157.771C29.8444 158.82 30.6203 159.677 31.6249 160.153C32.6295 160.63 33.7805 160.687 34.8247 160.312L165.736 113.315C166.78 112.94 167.632 112.164 168.104 111.157C168.576 110.15 168.63 108.996 168.253 107.947L167.612 106.159C167.235 105.11 166.459 104.253 165.455 103.777C164.45 103.3 163.299 103.243 162.255 103.618Z" fill="#3F3D56"/>
<path id="Vector_18" d="M55.122 133.001C52.3029 134.013 49.2457 134.163 46.337 133.431C43.4282 132.7 40.7986 131.12 38.7807 128.891C36.7627 126.662 35.4471 123.885 35.0001 120.911C34.5531 117.936 34.9949 114.898 36.2695 112.18C37.5442 109.463 39.5945 107.187 42.1611 105.642C44.7277 104.097 47.6954 103.352 50.6889 103.5C53.6825 103.649 56.5673 104.685 58.9787 106.477C61.3901 108.269 63.2197 110.736 64.2362 113.568C65.5945 117.365 65.3978 121.543 63.6891 125.187C61.9805 128.83 58.8995 131.64 55.122 133.001ZM44.9783 104.746C42.2334 105.731 39.8436 107.512 38.1112 109.863C36.3787 112.214 35.3814 115.03 35.2454 117.954C35.1094 120.878 35.8407 123.779 37.3469 126.291C38.8532 128.803 41.0666 130.812 43.7074 132.065C46.3482 133.317 49.2978 133.757 52.183 133.328C55.0683 132.9 57.7597 131.622 59.9169 129.656C62.0742 127.691 63.6003 125.126 64.3023 122.286C65.0044 119.447 64.8509 116.459 63.8611 113.703C62.5302 110.008 59.7947 106.991 56.2547 105.312C52.7147 103.632 48.6594 103.429 44.9783 104.746Z" fill="#3F3D56"/>
<path id="Vector_19" d="M160.504 26.6966L112.68 43.8657L112.815 44.2424L160.64 27.0733L160.504 26.6966Z" fill="#3F3D56"/>
<path id="Vector_20" d="M252.1 106.091L114.627 155.444L114.762 155.82L252.235 106.468L252.1 106.091Z" fill="#3F3D56"/>
<path id="Vector_21" d="M128.632 169.979L80.8068 187.149L80.9421 187.525L128.767 170.356L128.632 169.979Z" fill="#3F3D56"/>
<path id="Vector_22" d="M131.324 147.208L126.072 149.093L127.966 154.367L133.217 152.482L131.324 147.208Z" fill="#6C63FF"/>
<path id="Vector_23" d="M135.324 148.323L128.947 150.613L126.648 144.208L133.024 141.919L135.324 148.323ZM129.124 150.235L134.946 148.144L132.847 142.297L127.025 144.387L129.124 150.235Z" fill="#3F3D56"/>
<path id="Vector_24" d="M156.571 25.8667L151.32 27.7519L153.213 33.0262L158.465 31.141L156.571 25.8667Z" fill="#6C63FF"/>
<path id="Vector_25" d="M160.571 26.9825L154.194 29.2717L151.895 22.8672L158.272 20.5779L160.571 26.9825ZM154.372 28.8937L160.194 26.8035L158.094 20.9559L152.272 23.0461L154.372 28.8937Z" fill="#3F3D56"/>
<path id="Vector_26" d="M245.165 106.338L239.914 108.224L241.808 113.498L247.059 111.613L245.165 106.338Z" fill="#6C63FF"/>
<path id="Vector_27" d="M249.165 107.454L242.789 109.743L240.489 103.339L246.866 101.05L249.165 107.454ZM242.966 109.365L248.788 107.275L246.689 101.428L240.867 103.518L242.966 109.365Z" fill="#3F3D56"/>
<path id="Vector_28" d="M214.5 49.7168L214.054 49.8769L209.648 37.6025C209.313 36.6696 208.798 35.8115 208.133 35.0772C207.468 34.3429 206.666 33.7468 205.773 33.3229C204.879 32.899 203.911 32.6556 202.925 32.6067C201.939 32.5578 200.953 32.7042 200.024 33.0377L174.132 42.3328C173.204 42.6663 172.35 43.1802 171.62 43.8453C170.89 44.5104 170.298 45.3136 169.878 46.2091C169.458 47.1046 169.218 48.0748 169.172 49.0643C169.126 50.0538 169.275 51.0433 169.61 51.9762L193.784 119.314C194.119 120.247 194.634 121.106 195.299 121.84C195.964 122.574 196.766 123.17 197.659 123.594C198.553 124.018 199.521 124.261 200.507 124.31C201.493 124.359 202.479 124.213 203.408 123.879L229.299 114.584C230.228 114.251 231.082 113.737 231.812 113.072C232.542 112.407 233.134 111.603 233.554 110.708C233.974 109.812 234.214 108.842 234.26 107.853C234.306 106.863 234.157 105.874 233.822 104.941L217.191 58.614L217.637 58.4539L214.5 49.7168Z" fill="#3F3D56"/>
<path id="Vector_29" d="M208.291 38.5608L232.431 105.801C232.936 107.208 232.864 108.757 232.231 110.108C231.598 111.459 230.455 112.5 229.054 113.003L203.038 122.343C201.636 122.846 200.092 122.769 198.745 122.13C197.397 121.49 196.356 120.34 195.851 118.933L171.712 51.6929C171.207 50.286 171.279 48.7371 171.912 47.3868C172.546 46.0365 173.688 44.9954 175.089 44.4924L178.245 43.3592C178.227 43.7977 178.317 44.2341 178.507 44.6302C178.697 45.0262 178.98 45.3696 179.333 45.6301C179.686 45.8907 180.097 46.0604 180.529 46.1243C180.962 46.1882 181.404 46.1444 181.815 45.9966L196.649 40.6715C197.06 40.5238 197.429 40.2768 197.722 39.9521C198.016 39.6274 198.225 39.2351 198.331 38.8097C198.438 38.3843 198.438 37.9389 198.333 37.5127C198.227 37.0865 198.019 36.6926 197.726 36.3657L201.106 35.1524C202.506 34.6497 204.05 34.7264 205.398 35.3656C206.745 36.0047 207.786 37.1541 208.291 38.5608Z" fill="#6C63FF"/>
<g id="msgpwa2">
<path id="Vector_30" d="M207.889 82.7665L200.139 85.5488L200.967 87.8556L208.717 85.0732L207.889 82.7665Z" fill="#3F3D56"/>
<path id="Vector_31" d="M210.811 61.4432L184.322 70.9529L184.676 71.9415L211.166 62.4318L210.811 61.4432Z" fill="#3F3D56"/>
<path id="Vector_32" d="M211.935 64.5738L185.445 74.0835L185.8 75.0721L212.29 65.5624L211.935 64.5738Z" fill="#3F3D56"/>
<path id="Vector_33" d="M213.059 67.7043L186.569 77.2141L186.924 78.2026L213.414 68.6929L213.059 67.7043Z" fill="#3F3D56"/>
<path id="Vector_34" d="M214.183 70.8349L187.693 80.3446L188.048 81.3332L214.537 71.8235L214.183 70.8349Z" fill="#3F3D56"/>
</g>
<path id="Vector_35" d="M215.306 73.9655L188.817 83.4752L189.172 84.4638L215.661 74.9541L215.306 73.9655Z" fill="#3F3D56"/>
<path id="Vector_36" d="M193.778 52.7373L189.185 54.3863L190.841 58.9998L195.435 57.3508L193.778 52.7373Z" fill="#F2F2F2"/>
<path id="Vector_37" d="M191.358 54.9087L193.369 60.5108L198.946 58.5084L196.935 52.9063L191.358 54.9087ZM198.617 58.3523L193.523 60.181L191.687 55.0649L196.781 53.2362L198.617 58.3523Z" fill="#3F3D56"/>
<path id="Vector_38" opacity="0.1" d="M229.853 98.6203L232.431 105.801C232.936 107.208 232.864 108.757 232.231 110.108C231.598 111.459 230.455 112.5 229.054 113.003L203.038 122.343C201.637 122.846 200.092 122.769 198.745 122.13C197.397 121.49 196.356 120.34 195.851 118.933L182.853 82.7266L211.016 92.2498L211.498 92.4128L216.736 94.1833L217.226 94.3499L229.853 98.6203Z" fill="black"/>
<path id="Vector_39" d="M213.013 116.302C217.557 114.671 219.912 109.649 218.274 105.085C216.635 100.521 211.624 98.1442 207.08 99.7754C202.536 101.407 200.181 106.429 201.819 110.992C203.458 115.556 208.469 117.933 213.013 116.302Z" fill="#F2F2F2"/>
<path id="Vector_40" d="M104.854 178.941C101.627 180.099 98.1276 180.271 94.7978 179.433C91.4681 178.596 88.4579 176.787 86.1479 174.236C83.8379 171.685 82.3318 168.506 81.8201 165.101C81.3085 161.696 81.8142 158.218 83.2733 155.107C84.7324 151.996 87.0795 149.391 90.0176 147.622C92.9557 145.854 96.353 145 99.7797 145.17C103.207 145.34 106.509 146.526 109.269 148.577C112.03 150.629 114.124 153.454 115.288 156.695C116.843 161.042 116.617 165.825 114.662 169.995C112.706 174.166 109.179 177.383 104.854 178.941ZM93.223 146.541C90.0701 147.673 87.325 149.719 85.3351 152.419C83.3451 155.12 82.1995 158.354 82.0433 161.713C81.887 165.072 82.7271 168.404 84.4572 171.289C86.1873 174.175 88.7298 176.482 91.7632 177.921C94.7966 179.36 98.1845 179.865 101.499 179.373C104.813 178.881 107.904 177.413 110.382 175.155C112.86 172.898 114.613 169.952 115.42 166.69C116.226 163.428 116.05 159.996 114.913 156.83C113.384 152.586 110.242 149.12 106.176 147.191C102.109 145.263 97.4512 145.029 93.223 146.541Z" fill="#3F3D56"/>
<path id="Vector_41" d="M214.76 113.542C212.719 114.274 210.507 114.383 208.402 113.853C206.297 113.324 204.394 112.18 202.934 110.568C201.473 108.955 200.521 106.945 200.198 104.792C199.874 102.64 200.194 100.441 201.116 98.4743C202.039 96.5075 203.523 94.861 205.38 93.7429C207.237 92.6248 209.385 92.0854 211.551 92.1928C213.718 92.3003 215.806 93.0499 217.551 94.3467C219.296 95.6435 220.62 97.4294 221.355 99.4785C222.338 102.226 222.196 105.25 220.959 107.887C219.723 110.523 217.493 112.557 214.76 113.542ZM207.456 93.1981C205.49 93.9039 203.779 95.1793 202.538 96.8632C201.297 98.547 200.583 100.564 200.485 102.658C200.388 104.752 200.912 106.83 201.99 108.629C203.069 110.428 204.655 111.867 206.546 112.764C208.437 113.662 210.55 113.977 212.616 113.67C214.683 113.363 216.61 112.447 218.155 111.04C219.7 109.632 220.793 107.795 221.296 105.761C221.799 103.727 221.689 101.588 220.98 99.6131C220.027 96.9673 218.068 94.806 215.532 93.6033C212.997 92.4007 210.093 92.255 207.456 93.1981Z" fill="#3F3D56"/>
</g>
<defs>
<clipPath id="clip0">
<rect width="227" height="131" fill="white" transform="translate(0.543701 77.2025) rotate(-19.7482)"/>
</clipPath>
</defs>
</svg>
