<svg width="806" height="435" viewBox="0 0 806 435" fill="none" xmlns="http://www.w3.org/2000/svg">
<g id="undraw_developer_activity_bv83 1" clip-path="url(#clip0)">
<path id="Vector" opacity="0.1" d="M806 279.208C806.01 291.025 804.386 302.787 801.174 314.159C798.07 325.122 793.503 335.617 787.597 345.361C787.597 380.665 763.769 411.176 729.183 425.692C714.731 431.697 699.228 434.763 683.578 434.712H153.006C124.648 434.712 98.3687 427.059 76.8166 414.023C70.6486 410.309 64.7974 406.093 59.3227 401.417C35.3682 380.827 20.5164 352.373 20.5164 320.945C7.07235 300.24 -0.0562992 276.069 2.60403e-05 251.381C2.60403e-05 199.687 30.5703 155.237 74.3648 135.612C80.1802 133.008 86.1893 130.859 92.3377 129.186C94.5124 128.594 96.7106 128.063 98.9323 127.593C104.855 126.332 110.862 125.508 116.905 125.127C119.089 124.991 121.285 124.913 123.493 124.895H124.705C127.142 124.895 129.559 124.979 131.961 125.12L132.75 123.781C133.718 122.165 134.709 120.566 135.724 118.982C137.555 116.098 139.477 113.256 141.487 110.456C143.591 107.501 145.787 104.593 148.074 101.732L148.659 101.028C149.955 99.4118 151.28 97.8145 152.633 96.2361C156.86 91.3082 161.322 86.5283 166.019 81.8963C216.824 32.091 296.416 0.0290375 385.894 0.0290375C455.517 0.0290375 519.158 19.4424 567.906 51.5185C586.373 41.066 607.235 35.5814 628.455 35.6002C697.317 35.6002 753.159 92.2336 753.159 162.094C753.149 166.514 752.914 170.931 752.455 175.327C769.054 187.079 782.584 202.652 791.903 220.732C801.222 238.811 806.057 258.867 806 279.208Z" fill="#6C63FF"/>
<path id="Vector_2" opacity="0.2" d="M166.033 81.8673V96.2071H152.647C156.841 91.2839 161.303 86.5039 166.033 81.8673Z" fill="#6C63FF"/>
<path id="Vector_3" opacity="0.2" d="M190.601 78.2312H172.628V96.2071H190.601V78.2312Z" fill="#6C63FF"/>
<path id="Vector_4" opacity="0.2" d="M215.161 78.2312H197.188V96.2071H215.161V78.2312Z" fill="#6C63FF"/>
<path id="Vector_5" opacity="0.2" d="M239.729 78.2312H221.756V96.2071H239.729V78.2312Z" fill="#6C63FF"/>
<path id="Vector_6" opacity="0.2" d="M264.289 78.2312H246.316V96.2071H264.289V78.2312Z" fill="#6C63FF"/>
<path id="Vector_7" opacity="0.2" d="M288.857 78.2312H270.884V96.2071H288.857V78.2312Z" fill="#6C63FF"/>
<path id="Vector_8" d="M313.424 78.2312H295.451V96.2071H313.424V78.2312Z" fill="#6C63FF"/>
<path id="Vector_9" opacity="0.2" d="M337.985 78.2312H320.012V96.2071H337.985V78.2312Z" fill="#6C63FF"/>
<path id="Vector_10" opacity="0.2" d="M362.552 78.2312H344.579V96.2071H362.552V78.2312Z" fill="#6C63FF"/>
<path id="Vector_11" opacity="0.2" d="M387.112 78.2312H369.14V96.2071H387.112V78.2312Z" fill="#6C63FF"/>
<path id="Vector_12" d="M411.68 78.2312H393.707V96.2071H411.68V78.2312Z" fill="#6C63FF"/>
<path id="Vector_13" opacity="0.2" d="M436.247 78.2312H418.275V96.2071H436.247V78.2312Z" fill="#6C63FF"/>
<path id="Vector_14" opacity="0.2" d="M460.808 78.2312H442.835V96.2071H460.808V78.2312Z" fill="#6C63FF"/>
<path id="Vector_15" opacity="0.2" d="M485.375 78.2312H467.402V96.2071H485.375V78.2312Z" fill="#6C63FF"/>
<path id="Vector_16" opacity="0.2" d="M509.943 78.2312H491.97V96.2071H509.943V78.2312Z" fill="#6C63FF"/>
<path id="Vector_17" opacity="0.2" d="M534.503 78.2312H516.53V96.2071H534.503V78.2312Z" fill="#6C63FF"/>
<path id="Vector_18" opacity="0.2" d="M559.071 78.2312H541.098V96.2071H559.071V78.2312Z" fill="#6C63FF"/>
<path id="Vector_19" d="M583.631 78.2312H565.658V96.2071H583.631V78.2312Z" fill="#6C63FF"/>
<path id="Vector_20" d="M608.199 78.2312H590.226V96.2071H608.199V78.2312Z" fill="#6C63FF"/>
<path id="Vector_21" opacity="0.2" d="M632.766 78.2312H614.793V96.2071H632.766V78.2312Z" fill="#6C63FF"/>
<path id="Vector_22" opacity="0.2" d="M657.327 78.2312H639.354V96.2071H657.327V78.2312Z" fill="#6C63FF"/>
<path id="Vector_23" d="M681.894 78.2312H663.921V96.2071H681.894V78.2312Z" fill="#6C63FF"/>
<path id="Vector_24" d="M706.455 78.2312H688.482V96.2071H706.455V78.2312Z" fill="#6C63FF"/>
<path id="Vector_25" d="M141.473 110.448V118.975H135.71C137.541 116.071 139.462 113.229 141.473 110.448Z" fill="#6C63FF"/>
<path id="Vector_26" opacity="0.2" d="M166.033 100.999H148.06V118.975H166.033V100.999Z" fill="#6C63FF"/>
<path id="Vector_27" d="M190.601 100.999H172.628V118.975H190.601V100.999Z" fill="#6C63FF"/>
<path id="Vector_28" opacity="0.2" d="M215.161 100.999H197.188V118.975H215.161V100.999Z" fill="#6C63FF"/>
<path id="Vector_29" opacity="0.7" d="M239.729 100.999H221.756V118.975H239.729V100.999Z" fill="#6C63FF"/>
<path id="Vector_30" opacity="0.2" d="M264.289 100.999H246.316V118.975H264.289V100.999Z" fill="#6C63FF"/>
<path id="Vector_31" opacity="0.4" d="M288.857 100.999H270.884V118.975H288.857V100.999Z" fill="#6C63FF"/>
<path id="Vector_32" d="M313.424 100.999H295.451V118.975H313.424V100.999Z" fill="#6C63FF"/>
<path id="Vector_33" opacity="0.4" d="M337.985 100.999H320.012V118.975H337.985V100.999Z" fill="#6C63FF"/>
<path id="Vector_34" opacity="0.2" d="M362.552 100.999H344.579V118.975H362.552V100.999Z" fill="#6C63FF"/>
<path id="Vector_35" opacity="0.4" d="M387.112 100.999H369.14V118.975H387.112V100.999Z" fill="#6C63FF"/>
<path id="Vector_36" d="M411.68 100.999H393.707V118.975H411.68V100.999Z" fill="#6C63FF"/>
<path id="Vector_37" opacity="0.4" d="M436.247 100.999H418.275V118.975H436.247V100.999Z" fill="#6C63FF"/>
<path id="Vector_38" opacity="0.4" d="M460.808 100.999H442.835V118.975H460.808V100.999Z" fill="#6C63FF"/>
<path id="Vector_39" opacity="0.2" d="M485.375 100.999H467.402V118.975H485.375V100.999Z" fill="#6C63FF"/>
<path id="Vector_40" opacity="0.4" d="M509.943 100.999H491.97V118.975H509.943V100.999Z" fill="#6C63FF"/>
<path id="Vector_41" opacity="0.4" d="M534.503 100.999H516.53V118.975H534.503V100.999Z" fill="#6C63FF"/>
<path id="Vector_42" opacity="0.2" d="M559.071 100.999H541.098V118.975H559.071V100.999Z" fill="#6C63FF"/>
<path id="Vector_43" opacity="0.2" d="M583.631 100.999H565.658V118.975H583.631V100.999Z" fill="#6C63FF"/>
<path id="Vector_44" opacity="0.4" d="M608.199 100.999H590.226V118.975H608.199V100.999Z" fill="#6C63FF"/>
<path id="Vector_45" opacity="0.2" d="M632.766 100.999H614.793V118.975H632.766V100.999Z" fill="#6C63FF"/>
<path id="Vector_46" d="M657.327 100.999H639.354V118.975H657.327V100.999Z" fill="#6C63FF"/>
<path id="Vector_47" d="M681.894 100.999H663.921V118.975H681.894V100.999Z" fill="#6C63FF"/>
<path id="Vector_48" d="M706.455 100.999H688.482V118.975H706.455V100.999Z" fill="#6C63FF"/>
<path id="Vector_49" opacity="0.2" d="M92.3377 129.185V141.749H74.3647V135.612C80.1802 133.007 86.1893 130.858 92.3377 129.185Z" fill="#6C63FF"/>
<path id="Vector_50" opacity="0.2" d="M116.905 125.126V141.749H98.9323V127.593L116.905 125.126Z" fill="#6C63FF"/>
<path id="Vector_51" d="M141.466 123.773H123.493V141.749H141.466V123.773Z" fill="#6C63FF"/>
<path id="Vector_52" opacity="0.7" d="M166.033 123.773H148.06V141.749H166.033V123.773Z" fill="#6C63FF"/>
<path id="Vector_53" d="M190.601 123.773H172.628V141.749H190.601V123.773Z" fill="#6C63FF"/>
<path id="Vector_54" opacity="0.7" d="M215.161 123.773H197.188V141.749H215.161V123.773Z" fill="#6C63FF"/>
<path id="Vector_55" opacity="0.7" d="M239.729 123.773H221.756V141.749H239.729V123.773Z" fill="#6C63FF"/>
<path id="Vector_56" opacity="0.2" d="M264.289 123.773H246.316V141.749H264.289V123.773Z" fill="#6C63FF"/>
<path id="Vector_57" opacity="0.4" d="M288.857 123.773H270.884V141.749H288.857V123.773Z" fill="#6C63FF"/>
<path id="Vector_58" opacity="0.4" d="M313.424 123.773H295.451V141.749H313.424V123.773Z" fill="#6C63FF"/>
<path id="Vector_59" d="M337.985 123.773H320.012V141.749H337.985V123.773Z" fill="#6C63FF"/>
<path id="Vector_60" opacity="0.2" d="M362.552 123.773H344.579V141.749H362.552V123.773Z" fill="#6C63FF"/>
<path id="Vector_61" opacity="0.4" d="M387.112 123.773H369.14V141.749H387.112V123.773Z" fill="#6C63FF"/>
<path id="Vector_62" d="M411.68 123.773H393.707V141.749H411.68V123.773Z" fill="#6C63FF"/>
<path id="Vector_63" opacity="0.2" d="M436.247 123.773H418.275V141.749H436.247V123.773Z" fill="#6C63FF"/>
<path id="Vector_64" opacity="0.4" d="M460.808 123.773H442.835V141.749H460.808V123.773Z" fill="#6C63FF"/>
<path id="Vector_65" opacity="0.2" d="M485.375 123.773H467.402V141.749H485.375V123.773Z" fill="#6C63FF"/>
<path id="Vector_66" d="M509.943 123.773H491.97V141.749H509.943V123.773Z" fill="#6C63FF"/>
<path id="Vector_67" opacity="0.2" d="M534.503 123.773H516.53V141.749H534.503V123.773Z" fill="#6C63FF"/>
<path id="Vector_68" opacity="0.7" d="M559.071 123.773H541.098V141.749H559.071V123.773Z" fill="#6C63FF"/>
<path id="Vector_69" opacity="0.7" d="M583.631 123.773H565.658V141.749H583.631V123.773Z" fill="#6C63FF"/>
<path id="Vector_70" opacity="0.4" d="M608.199 123.773H590.226V141.749H608.199V123.773Z" fill="#6C63FF"/>
<path id="Vector_71" opacity="0.2" d="M632.766 123.773H614.793V141.749H632.766V123.773Z" fill="#6C63FF"/>
<path id="Vector_72" d="M657.327 123.773H639.354V141.749H657.327V123.773Z" fill="#6C63FF"/>
<path id="Vector_73" d="M681.894 123.773H663.921V141.749H681.894V123.773Z" fill="#6C63FF"/>
<path id="Vector_74" d="M706.455 123.773H688.482V141.749H706.455V123.773Z" fill="#6C63FF"/>
<path id="Vector_75" opacity="0.2" d="M92.3377 146.541H74.3647V164.517H92.3377V146.541Z" fill="#6C63FF"/>
<path id="Vector_76" opacity="0.2" d="M116.905 146.541H98.9323V164.517H116.905V146.541Z" fill="#6C63FF"/>
<path id="Vector_77" opacity="0.2" d="M141.466 146.541H123.493V164.517H141.466V146.541Z" fill="#6C63FF"/>
<path id="Vector_78" opacity="0.2" d="M166.033 146.541H148.06V164.517H166.033V146.541Z" fill="#6C63FF"/>
<path id="Vector_79" d="M190.601 146.541H172.628V164.517H190.601V146.541Z" fill="#6C63FF"/>
<path id="Vector_80" opacity="0.7" d="M215.161 146.541H197.188V164.517H215.161V146.541Z" fill="#6C63FF"/>
<path id="Vector_81" opacity="0.7" d="M239.729 146.541H221.756V164.517H239.729V146.541Z" fill="#6C63FF"/>
<path id="Vector_82" opacity="0.2" d="M264.289 146.541H246.316V164.517H264.289V146.541Z" fill="#6C63FF"/>
<path id="Vector_83" opacity="0.2" d="M288.857 146.541H270.884V164.517H288.857V146.541Z" fill="#6C63FF"/>
<path id="Vector_84" opacity="0.4" d="M313.424 146.541H295.451V164.517H313.424V146.541Z" fill="#6C63FF"/>
<path id="Vector_85" opacity="0.4" d="M337.985 146.541H320.012V164.517H337.985V146.541Z" fill="#6C63FF"/>
<path id="Vector_86" d="M362.552 146.541H344.579V164.517H362.552V146.541Z" fill="#6C63FF"/>
<path id="Vector_87" opacity="0.2" d="M387.112 146.541H369.14V164.517H387.112V146.541Z" fill="#6C63FF"/>
<path id="Vector_88" opacity="0.4" d="M411.68 146.541H393.707V164.517H411.68V146.541Z" fill="#6C63FF"/>
<path id="Vector_89" opacity="0.4" d="M436.247 146.541H418.275V164.517H436.247V146.541Z" fill="#6C63FF"/>
<path id="Vector_90" opacity="0.4" d="M460.808 146.541H442.835V164.517H460.808V146.541Z" fill="#6C63FF"/>
<path id="Vector_91" opacity="0.4" d="M485.375 146.541H467.402V164.517H485.375V146.541Z" fill="#6C63FF"/>
<path id="Vector_92" opacity="0.2" d="M509.943 146.541H491.97V164.517H509.943V146.541Z" fill="#6C63FF"/>
<path id="Vector_93" opacity="0.2" d="M534.503 146.541H516.53V164.517H534.503V146.541Z" fill="#6C63FF"/>
<path id="Vector_94" opacity="0.2" d="M559.071 146.541H541.098V164.517H559.071V146.541Z" fill="#6C63FF"/>
<path id="Vector_95" opacity="0.2" d="M583.631 146.541H565.658V164.517H583.631V146.541Z" fill="#6C63FF"/>
<path id="Vector_96" opacity="0.7" d="M608.199 146.541H590.226V164.517H608.199V146.541Z" fill="#6C63FF"/>
<path id="Vector_97" opacity="0.7" d="M632.766 146.541H614.793V164.517H632.766V146.541Z" fill="#6C63FF"/>
<path id="Vector_98" opacity="0.4" d="M657.327 146.541H639.354V164.517H657.327V146.541Z" fill="#6C63FF"/>
<path id="Vector_99" opacity="0.2" d="M681.894 146.541H663.921V164.517H681.894V146.541Z" fill="#6C63FF"/>
<path id="Vector_100" d="M706.455 146.541H688.482V164.517H706.455V146.541Z" fill="#6C63FF"/>
<path id="Vector_101" opacity="0.2" d="M92.3377 169.315H74.3647V187.291H92.3377V169.315Z" fill="#6C63FF"/>
<path id="Vector_102" opacity="0.2" d="M116.905 169.315H98.9323V187.291H116.905V169.315Z" fill="#6C63FF"/>
<path id="Vector_103" opacity="0.4" d="M141.466 169.315H123.493V187.291H141.466V169.315Z" fill="#6C63FF"/>
<path id="Vector_104" opacity="0.2" d="M166.033 169.315H148.06V187.291H166.033V169.315Z" fill="#6C63FF"/>
<path id="Vector_105" opacity="0.2" d="M190.601 169.315H172.628V187.291H190.601V169.315Z" fill="#6C63FF"/>
<path id="Vector_106" opacity="0.7" d="M215.161 169.315H197.188V187.291H215.161V169.315Z" fill="#6C63FF"/>
<path id="Vector_107" opacity="0.7" d="M239.729 169.315H221.756V187.291H239.729V169.315Z" fill="#6C63FF"/>
<path id="Vector_108" opacity="0.2" d="M264.289 169.315H246.316V187.291H264.289V169.315Z" fill="#6C63FF"/>
<path id="Vector_109" opacity="0.2" d="M288.857 169.315H270.884V187.291H288.857V169.315Z" fill="#6C63FF"/>
<path id="Vector_110" opacity="0.4" d="M313.424 169.315H295.451V187.291H313.424V169.315Z" fill="#6C63FF"/>
<path id="Vector_111" d="M337.985 169.315H320.012V187.291H337.985V169.315Z" fill="#6C63FF"/>
<path id="Vector_112" opacity="0.2" d="M362.552 169.315H344.579V187.291H362.552V169.315Z" fill="#6C63FF"/>
<path id="Vector_113" d="M387.112 169.315H369.14V187.291H387.112V169.315Z" fill="#6C63FF"/>
<path id="Vector_114" d="M411.68 169.315H393.707V187.291H411.68V169.315Z" fill="#6C63FF"/>
<path id="Vector_115" d="M436.247 169.315H418.275V187.291H436.247V169.315Z" fill="#6C63FF"/>
<path id="Vector_116" opacity="0.2" d="M460.808 169.315H442.835V187.291H460.808V169.315Z" fill="#6C63FF"/>
<path id="Vector_117" d="M485.375 169.315H467.402V187.291H485.375V169.315Z" fill="#6C63FF"/>
<path id="Vector_118" opacity="0.2" d="M509.943 169.315H491.97V187.291H509.943V169.315Z" fill="#6C63FF"/>
<path id="Vector_119" opacity="0.2" d="M534.503 169.315H516.53V187.291H534.503V169.315Z" fill="#6C63FF"/>
<path id="Vector_120" opacity="0.2" d="M559.071 169.315H541.098V187.291H559.071V169.315Z" fill="#6C63FF"/>
<path id="Vector_121" opacity="0.2" d="M583.631 169.315H565.658V187.291H583.631V169.315Z" fill="#6C63FF"/>
<path id="Vector_122" opacity="0.2" d="M608.199 169.315H590.226V187.291H608.199V169.315Z" fill="#6C63FF"/>
<path id="Vector_123" opacity="0.7" d="M632.766 169.315H614.793V187.291H632.766V169.315Z" fill="#6C63FF"/>
<path id="Vector_124" opacity="0.2" d="M657.327 169.315H639.354V187.291H657.327V169.315Z" fill="#6C63FF"/>
<path id="Vector_125" opacity="0.2" d="M681.894 169.315H663.921V187.291H681.894V169.315Z" fill="#6C63FF"/>
<path id="Vector_126" d="M706.455 169.315H688.482V187.291H706.455V169.315Z" fill="#6C63FF"/>
<path id="Vector_127" opacity="0.2" d="M92.3377 192.083H74.3647V210.059H92.3377V192.083Z" fill="#6C63FF"/>
<path id="Vector_128" opacity="0.2" d="M116.905 192.083H98.9323V210.059H116.905V192.083Z" fill="#6C63FF"/>
<path id="Vector_129" opacity="0.2" d="M141.466 192.083H123.493V210.059H141.466V192.083Z" fill="#6C63FF"/>
<path id="Vector_130" opacity="0.4" d="M166.033 192.083H148.06V210.059H166.033V192.083Z" fill="#6C63FF"/>
<path id="Vector_131" opacity="0.2" d="M190.601 192.083H172.628V210.059H190.601V192.083Z" fill="#6C63FF"/>
<path id="Vector_132" opacity="0.2" d="M215.161 192.083H197.188V210.059H215.161V192.083Z" fill="#6C63FF"/>
<path id="Vector_133" opacity="0.7" d="M239.729 192.083H221.756V210.059H239.729V192.083Z" fill="#6C63FF"/>
<path id="Vector_134" opacity="0.2" d="M264.289 192.083H246.316V210.059H264.289V192.083Z" fill="#6C63FF"/>
<path id="Vector_135" opacity="0.2" d="M288.857 192.083H270.884V210.059H288.857V192.083Z" fill="#6C63FF"/>
<path id="Vector_136" opacity="0.2" d="M313.424 192.083H295.451V210.059H313.424V192.083Z" fill="#6C63FF"/>
<path id="Vector_137" d="M337.985 192.083H320.012V210.059H337.985V192.083Z" fill="#6C63FF"/>
<path id="Vector_138" opacity="0.2" d="M362.552 192.083H344.579V210.059H362.552V192.083Z" fill="#6C63FF"/>
<path id="Vector_139" d="M387.112 192.083H369.14V210.059H387.112V192.083Z" fill="#6C63FF"/>
<path id="Vector_140" d="M411.68 192.083H393.707V210.059H411.68V192.083Z" fill="#6C63FF"/>
<path id="Vector_141" opacity="0.2" d="M436.247 192.083H418.275V210.059H436.247V192.083Z" fill="#6C63FF"/>
<path id="Vector_142" opacity="0.2" d="M460.808 192.083H442.835V210.059H460.808V192.083Z" fill="#6C63FF"/>
<path id="Vector_143" opacity="0.2" d="M485.375 192.083H467.402V210.059H485.375V192.083Z" fill="#6C63FF"/>
<path id="Vector_144" opacity="0.2" d="M509.943 192.083H491.97V210.059H509.943V192.083Z" fill="#6C63FF"/>
<path id="Vector_145" opacity="0.2" d="M534.503 192.083H516.53V210.059H534.503V192.083Z" fill="#6C63FF"/>
<path id="Vector_146" opacity="0.2" d="M559.071 192.083H541.098V210.059H559.071V192.083Z" fill="#6C63FF"/>
<path id="Vector_147" opacity="0.2" d="M583.631 192.083H565.658V210.059H583.631V192.083Z" fill="#6C63FF"/>
<path id="Vector_148" opacity="0.2" d="M608.199 192.083H590.226V210.059H608.199V192.083Z" fill="#6C63FF"/>
<path id="Vector_149" opacity="0.2" d="M632.766 192.083H614.793V210.059H632.766V192.083Z" fill="#6C63FF"/>
<path id="Vector_150" opacity="0.2" d="M657.327 192.083H639.354V210.059H657.327V192.083Z" fill="#6C63FF"/>
<path id="Vector_151" opacity="0.4" d="M681.894 192.083H663.921V210.059H681.894V192.083Z" fill="#6C63FF"/>
<path id="Vector_152" d="M706.455 192.083H688.482V210.059H706.455V192.083Z" fill="#6C63FF"/>
<path id="Vector_153" opacity="0.7" d="M92.3377 214.858H74.3647V232.833H92.3377V214.858Z" fill="#6C63FF"/>
<path id="Vector_154" opacity="0.7" d="M116.905 214.858H98.9323V232.833H116.905V214.858Z" fill="#6C63FF"/>
<path id="Vector_155" opacity="0.7" d="M141.466 214.858H123.493V232.833H141.466V214.858Z" fill="#6C63FF"/>
<path id="Vector_156" opacity="0.7" d="M166.033 214.858H148.06V232.833H166.033V214.858Z" fill="#6C63FF"/>
<path id="Vector_157" opacity="0.7" d="M190.601 214.858H172.628V232.833H190.601V214.858Z" fill="#6C63FF"/>
<path id="Vector_158" opacity="0.2" d="M215.161 214.858H197.188V232.833H215.161V214.858Z" fill="#6C63FF"/>
<path id="Vector_159" opacity="0.2" d="M239.729 214.858H221.756V232.833H239.729V214.858Z" fill="#6C63FF"/>
<path id="Vector_160" opacity="0.2" d="M264.289 214.858H246.316V232.833H264.289V214.858Z" fill="#6C63FF"/>
<path id="Vector_161" opacity="0.2" d="M288.857 214.858H270.884V232.833H288.857V214.858Z" fill="#6C63FF"/>
<path id="Vector_162" opacity="0.2" d="M313.424 214.858H295.451V232.833H313.424V214.858Z" fill="#6C63FF"/>
<path id="Vector_163" opacity="0.2" d="M337.985 214.858H320.012V232.833H337.985V214.858Z" fill="#6C63FF"/>
<path id="Vector_164" d="M362.552 214.858H344.579V232.833H362.552V214.858Z" fill="#6C63FF"/>
<path id="Vector_165" opacity="0.2" d="M387.112 214.858H369.14V232.833H387.112V214.858Z" fill="#6C63FF"/>
<path id="Vector_166" opacity="0.2" d="M411.68 214.858H393.707V232.833H411.68V214.858Z" fill="#6C63FF"/>
<path id="Vector_167" opacity="0.2" d="M436.247 214.858H418.275V232.833H436.247V214.858Z" fill="#6C63FF"/>
<path id="Vector_168" d="M460.808 214.858H442.835V232.833H460.808V214.858Z" fill="#6C63FF"/>
<path id="Vector_169" opacity="0.2" d="M485.375 214.858H467.402V232.833H485.375V214.858Z" fill="#6C63FF"/>
<path id="Vector_170" opacity="0.2" d="M509.943 214.858H491.97V232.833H509.943V214.858Z" fill="#6C63FF"/>
<path id="Vector_171" opacity="0.2" d="M534.503 214.858H516.53V232.833H534.503V214.858Z" fill="#6C63FF"/>
<path id="Vector_172" opacity="0.2" d="M559.071 214.858H541.098V232.833H559.071V214.858Z" fill="#6C63FF"/>
<path id="Vector_173" opacity="0.2" d="M583.631 214.858H565.658V232.833H583.631V214.858Z" fill="#6C63FF"/>
<path id="Vector_174" opacity="0.2" d="M608.199 214.858H590.226V232.833H608.199V214.858Z" fill="#6C63FF"/>
<path id="Vector_175" opacity="0.2" d="M632.766 214.858H614.793V232.833H632.766V214.858Z" fill="#6C63FF"/>
<path id="Vector_176" opacity="0.2" d="M657.327 214.858H639.354V232.833H657.327V214.858Z" fill="#6C63FF"/>
<path id="Vector_177" opacity="0.2" d="M681.894 214.858H663.921V232.833H681.894V214.858Z" fill="#6C63FF"/>
<path id="Vector_178" d="M706.455 214.858H688.482V232.833H706.455V214.858Z" fill="#6C63FF"/>
<path id="Vector_179" d="M517.503 280.99C531.071 280.99 542.07 269.989 542.07 256.418C542.07 242.848 531.071 231.847 517.503 231.847C503.935 231.847 492.935 242.848 492.935 256.418C492.935 269.989 503.935 280.99 517.503 280.99Z" fill="#767D9F"/>
<path id="Vector_180" d="M516.228 225.16C518.679 235.861 520.76 246.642 522.47 257.503C522.984 260.731 523.442 264.134 522.273 267.186C521.293 269.729 519.299 271.716 517.735 273.943C516.171 276.17 514.988 279.024 515.939 281.575C516.89 284.125 519.666 285.521 522.315 286.239C529.896 288.283 537.977 286.796 545.523 284.584C548.939 283.704 552.215 282.347 555.252 280.553C558.451 278.523 561.072 275.705 563.481 272.802C574.479 259.462 581.68 243.453 588.458 227.541C584.102 227.938 579.716 227.292 575.659 225.658C571.603 224.023 567.994 221.447 565.13 218.141C562.354 214.879 560.318 210.334 561.882 206.345C557.296 208.861 551.849 209.03 546.911 210.749C543.848 211.919 540.899 213.37 538.104 215.083C534.731 217.033 531.378 219.02 528.043 221.044C524.231 223.342 520.659 225.385 516.228 225.16Z" fill="#FFF1DB"/>
<path id="Vector_181" d="M567.61 243.608C563.305 251.986 557.704 260.04 549.707 265.029C541.711 270.018 530.945 271.371 522.935 266.439C518.989 264.029 516.002 260.364 512.557 257.278C509.112 254.192 504.807 251.549 500.178 251.951C495.077 252.395 491.082 256.376 487.665 260.188C482.48 265.981 477.47 272.019 473.8 278.876C466.754 292.053 465.085 307.457 465.395 322.396C465.705 337.334 467.868 352.196 467.917 367.134C467.987 385.512 464.873 403.741 461.724 421.844C490.681 418.278 519.673 426.072 548.693 429.025C567.265 430.934 585.977 430.892 604.648 430.843C607.931 430.843 611.426 430.758 614.159 428.94C615.83 427.721 617.181 426.116 618.098 424.261C620.676 419.505 621.712 414.079 622.431 408.716C624.255 395.173 624.312 381.46 624.361 367.79C624.488 334.671 624.608 301.432 620.402 268.574C619.366 260.491 618.041 252.367 614.941 244.806C611.841 237.245 606.783 230.29 599.709 226.238C595.165 223.631 584.632 219.093 579.277 221.721C573.267 224.652 570.492 237.999 567.61 243.608Z" fill="#767D9F"/>
<path id="Vector_182" d="M569.752 337.13C568.66 316.695 564.214 294.886 573.676 276.748C576.001 272.294 567.659 266.735 570.238 262.422C573.385 257.164 575.771 251.487 577.326 245.56C577.861 243.523 578.291 241.367 577.784 239.323C576.847 235.596 573.162 233.376 570.034 231.107C566.581 228.598 564.806 220.953 563.693 216.816C562.58 212.68 572.549 217.662 576.558 216.189C582.124 214.153 589.197 215.435 594.749 217.5C597.849 218.642 601.217 218.74 604.521 218.825C610.94 218.994 617.379 219.156 623.748 218.367C626.609 218.007 629.476 217.465 632.351 217.627C639.685 218.043 646.061 223.06 650.401 228.993C654.741 234.926 657.503 241.839 661.061 248.265C664.027 253.621 667.564 258.68 670.093 264.254C672.334 269.187 673.75 274.486 675.152 279.757L678.766 293.279C679.398 295.213 679.698 297.241 679.654 299.276C679.471 301.439 678.512 303.454 677.54 305.378C673.864 312.508 669.455 319.236 664.386 325.454C656.784 334.776 647.555 343.183 643.039 354.345C641.277 358.692 640.298 363.315 639.403 367.923C635.796 386.355 633.232 404.976 631.724 423.697C623.491 419.887 614.862 417.001 605.994 415.093C601.573 414.147 597.104 413.442 592.607 412.979C588.669 412.571 583.589 413.346 579.841 412.275C573.57 410.492 572.88 399.887 571.929 394.334C570.407 385.491 570.104 376.492 570.048 367.557C569.977 357.396 570.294 347.256 569.752 337.13Z" fill="#4C4981"/>
<path id="Vector_183" d="M432.048 298.916C435.014 315.828 438.284 332.789 444.73 348.679C444.568 348.834 444.406 348.975 444.244 349.116C443.673 349.602 443.082 350.06 442.462 350.526C441.017 351.54 439.432 352.4 438.234 353.725C437.781 354.232 437.423 354.817 437.177 355.451C436.956 355.947 436.842 356.483 436.842 357.026C436.842 357.569 436.956 358.105 437.177 358.601C433.817 360.088 429.914 359.63 426.144 359.489C422.896 359.369 419.747 359.489 417.14 361.272C413.519 363.766 412.427 368.558 411.842 372.913C411.626 374.5 411.44 376.091 411.285 377.683C411.135 379.163 411.013 380.647 410.919 382.137C410.6 387.063 410.555 392.003 410.785 396.934C410.823 397.836 410.872 398.738 410.933 399.64C399.421 399.365 388.93 393.362 379.003 387.527C376.734 386.195 374.395 384.793 372.923 382.595C371.566 380.435 370.992 377.876 371.295 375.344C371.295 374.984 371.359 374.639 371.408 374.273C371.724 372.181 372.265 370.131 373.022 368.156C376.127 359.745 380.706 351.955 386.542 345.149C389.064 342.204 391.903 339.321 393.08 335.622C393.594 334.008 393.784 332.296 394.306 330.689C396.645 323.727 405.085 320.437 407.974 313.679C408.679 312.065 409.003 310.297 409.876 308.746C410.663 307.458 411.677 306.324 412.871 305.399C413.385 304.969 413.92 304.554 414.449 304.138C419.399 300.258 424.169 296.159 428.758 291.842C429.613 291.038 430.458 290.225 431.294 289.403C431.183 292.593 431.436 295.784 432.048 298.916Z" fill="#4C4981"/>
<path id="Vector_184" d="M503.045 248.9C502.031 249.971 500.932 250.978 499.854 251.979L499.565 252.24L498.424 253.297C496.352 255.085 494.559 257.173 493.104 259.491L492.985 259.688C489.391 266.121 490.723 274.042 491.723 281.349C492.964 290.455 493.522 299.641 493.393 308.831C493.21 321.515 491.716 334.114 491.688 346.784C491.688 349.659 491.752 352.527 491.878 355.402C492.083 360.074 492.435 364.738 492.858 369.403C493.316 374.519 493.865 379.628 494.38 384.737C494.788 388.69 495.176 392.636 495.5 396.582C495.662 398.626 495.817 400.662 495.944 402.705C496.092 405.101 496.211 407.504 496.282 409.9C496.331 411.422 496.359 412.937 496.359 414.459C496.359 415.326 496.359 416.186 496.359 417.045C496.359 418.694 496.315 420.338 496.225 421.978C496.132 424.087 495.988 426.201 495.796 428.32C495.577 430.624 495.19 433.14 493.569 434.76C493.471 434.859 493.365 434.951 493.259 435.042L490.977 434.76C475.241 432.876 459.354 432.593 443.561 433.915C443.906 431.533 444.223 429.158 444.533 426.77C444.674 425.642 444.815 424.508 444.949 423.373C445.104 422.077 445.252 420.78 445.393 419.483C445.555 418.074 445.703 416.665 445.843 415.255C446.21 411.624 446.532 407.99 446.809 404.354C447.217 399.051 447.527 393.738 447.739 388.415C447.842 385.874 447.922 383.33 447.978 380.784C448.058 377.627 448.096 374.467 448.091 371.306C448.091 368.234 448.065 365.157 448.013 362.075C448.013 361.06 447.971 360.045 447.887 359.038C447.826 358.13 447.701 357.229 447.513 356.339C446.99 354.287 446.283 352.287 445.4 350.363C445.245 349.997 445.097 349.659 444.949 349.271C444.864 349.081 444.787 348.884 444.709 348.693C448.767 345.078 451.656 340.237 454.432 335.474C458.934 327.8 463.542 319.788 464.295 310.924C465.049 302.059 460.646 292.102 452.177 289.396C449.873 288.692 447.436 288.494 445.061 288.079C442.821 287.684 438.15 286.789 435.557 285.182C434.148 286.629 432.739 288.05 431.33 289.446C431.415 287.317 431.936 285.228 432.859 283.308L433.859 283.357C433.778 283.132 433.739 282.893 433.746 282.653C433.746 281.899 434.268 281.046 435.381 280.102C438.699 277.283 443.92 276.656 446.013 272.844C446.886 271.258 447.034 269.37 447.739 267.707C449.761 262.965 455.566 261.217 459.061 257.426C462.555 253.635 463.429 248.265 466.254 244.037C468.365 240.95 471.292 238.51 474.709 236.991C474.991 236.857 475.279 236.723 475.568 236.603C481.416 234.102 488.363 233.531 494.422 233.545C496.775 233.545 502.876 233.616 505.864 234.806C506.348 234.98 506.792 235.251 507.167 235.603C510.352 239.07 505.399 246.391 503.045 248.9Z" fill="#4C4981"/>
<path id="Vector_185" d="M433.098 282.815C438.541 281.176 444.255 280.636 449.908 281.225C455.561 281.814 461.041 283.521 466.029 286.246C471.101 289.065 475.653 292.997 478.443 298.071C482.635 305.681 482.452 314.856 482.156 323.544C482.008 327.892 481.818 332.395 479.901 336.298C477.682 340.815 473.497 343.916 469.227 346.453C466.553 348.159 463.622 349.427 460.547 350.208C455.813 351.237 450.895 350.363 446.125 349.504C440.94 348.545 435.374 347.39 431.774 343.528C429.66 341.287 428.505 338.377 427.363 335.53C425.724 331.42 424.08 327.314 422.431 323.213C419.578 316.089 418.613 310.163 422.382 303.222C424.094 300.058 426.187 297.098 427.878 293.913C428.723 292.292 431.753 283.231 433.098 282.815Z" fill="#4C4981"/>
<path id="Vector_186" d="M729.205 404.629V425.698C714.752 431.703 699.249 434.769 683.599 434.718H493.591C493.492 434.817 493.386 434.908 493.28 435L490.998 434.718H153.006C124.648 434.718 98.3686 427.066 76.8166 414.029V381.862L239.369 363.097H239.496L334.159 371.116L358.656 373.23L371.38 374.308L397.716 376.541L411.264 377.69L430.992 379.367L433.768 379.6L447.985 380.805L467.276 382.39L494.401 384.687L539.618 388.528L571.429 391.227L623.664 395.659L633.598 396.497L634.669 396.589L635.599 396.667L648.717 397.78L663.118 399.006L664.788 399.147L729.205 404.629Z" fill="#504F60"/>
<path id="Vector_187" d="M538.273 403.854L334.56 369.079L326.662 409.026L420.043 420.209L448.795 423.81L527.888 408.23L538.273 403.854Z" fill="#9C9CA1"/>
<path id="Vector_188" d="M432.823 421.809L534.884 402.621C535.394 402.523 535.92 402.54 536.424 402.669C536.927 402.799 537.396 403.038 537.796 403.37C538.196 403.702 538.518 404.119 538.738 404.59C538.958 405.061 539.071 405.575 539.069 406.095C539.071 406.92 538.784 407.719 538.257 408.354C537.731 408.989 536.998 409.419 536.187 409.569L436.515 428.235L432.823 421.809Z" fill="#9C9CA1"/>
<path id="LH" d="M477.097 361.469C480.275 361.173 483.494 360.673 486.355 359.263C489.878 357.509 492.618 354.486 495.88 352.259C503.053 347.326 512.648 346.664 520.871 349.497C529.093 352.329 535.955 358.397 540.76 365.64C543.951 370.467 546.347 376.626 544.092 381.953C543.319 383.582 542.344 385.106 541.19 386.491L535.314 394.172C534.197 395.787 532.854 397.232 531.326 398.463C529.128 400.063 526.394 400.718 523.703 401.113C516.552 402.156 509.274 401.564 502.066 402.043C489.687 402.868 477.597 406.856 465.19 406.722C458.06 406.645 451.022 405.207 444.054 403.77L413.216 397.428C407.847 396.328 401.781 394.722 399.252 389.853C398.118 387.661 397.906 385.124 397.772 382.658C397.406 375.865 397.772 368.311 402.479 363.414C406.903 358.819 413.899 357.368 419.183 353.971C425.651 349.807 427.786 351.153 434.606 354.281C447.911 360.308 462.55 362.784 477.097 361.469Z" fill="#FFF1DB"/>
<path id="RH" d="M600.935 351.808C592.283 355.155 583.582 358.516 574.522 360.511C559.332 363.858 543.437 363.329 528.367 367.155C520.405 369.185 512.493 372.455 504.314 371.792C500.657 371.496 497.127 370.383 493.569 369.537C473.581 364.605 450.86 366.204 434.627 378.888C429.075 383.222 424.531 388.626 420.409 394.391C419.527 395.636 418.931 397.06 418.664 398.562C418.396 400.064 418.464 401.607 418.861 403.08C419.259 404.553 419.978 405.92 420.965 407.083C421.952 408.246 423.184 409.177 424.573 409.808C430.886 412.712 437.648 414.516 444.568 415.143C453.819 415.96 463.112 414.649 472.313 413.339C485.967 411.401 499.628 409.456 513.247 407.279C518.137 406.497 523.026 405.686 527.944 405.066C563.333 400.592 599.364 406.031 634.845 402.297C638.431 401.916 642.08 401.423 645.342 399.894C653.6 396.018 657.686 385.801 655.981 376.823C654.276 367.846 647.696 360.384 639.777 355.803C633.14 351.949 625.982 350.392 618.591 348.757C611.729 347.157 607.544 349.271 600.935 351.808Z" fill="#FFF1DB"/>
<path id="Vector_189" opacity="0.1" d="M676.836 298.141C680.739 303.257 681.57 310.12 681.147 316.526C680.725 322.931 679.203 329.266 678.977 335.699C678.667 344.522 680.795 353.316 680.436 362.11C680.182 368.262 678.724 374.294 676.998 380.199C674.962 387.168 672.017 394.658 665.584 398.005C657.045 402.452 639.135 399.95 630.152 403.431C630.97 398.337 638.804 390.959 639.622 385.864C640.185 382.341 640.756 378.719 640.15 375.189C639.375 370.686 636.733 366.69 633.598 363.364C628.609 358.072 622.099 354.091 614.948 352.794C607.797 351.498 590.289 352.562 584.568 357.079C583.864 352.414 596.968 347.918 601.576 346.911C603.873 346.396 606.508 346.685 608.347 345.226C611.869 342.464 609.312 336.961 609.481 332.543C609.615 329.019 611.672 325.792 612.088 322.269C612.792 316.631 609.115 310.888 610.559 305.357C611.094 303.313 612.285 301.516 613.109 299.572C615.618 293.617 614.519 286.824 613.18 280.497C612.349 276.522 611.538 272.041 613.751 268.651C615.801 265.487 621.62 276.755 625.347 276.233C637.656 274.507 648.795 265.382 658.736 272.851C663.802 276.656 664.464 280.602 666.486 286.035C668.452 291.207 673.545 293.857 676.836 298.141Z" fill="black"/>
<path id="Vector_190" d="M678.949 298.141C682.853 303.257 683.684 310.12 683.261 316.526C682.838 322.931 681.317 329.266 681.091 335.699C680.781 344.522 682.909 353.316 682.55 362.11C682.296 368.262 680.838 374.294 679.111 380.199C677.075 387.168 674.13 394.658 667.698 398.005C659.159 402.452 641.249 399.95 632.266 403.431C633.083 398.337 640.918 390.959 641.735 385.864C642.299 382.341 642.87 378.719 642.264 375.189C641.489 370.686 638.847 366.69 635.711 363.364C630.723 358.072 624.213 354.091 617.062 352.795C609.911 351.498 592.403 352.562 586.682 357.079C585.978 352.414 599.082 347.918 603.69 346.911C605.987 346.396 608.622 346.685 610.461 345.226C613.983 342.464 611.426 336.961 611.595 332.543C611.729 329.019 613.786 325.792 614.202 322.269C614.906 316.631 611.228 310.888 612.673 305.357C613.208 303.313 614.399 301.516 615.223 299.572C617.731 293.617 616.632 286.824 615.294 280.497C614.462 276.522 613.652 272.041 615.864 268.651C617.915 265.487 621.923 264.289 625.651 263.761C638.129 262.073 650.773 265.335 660.878 272.851C665.943 276.656 666.606 280.602 668.628 286.035C670.565 291.207 675.659 293.857 678.949 298.141Z" fill="#4C4981"/>
<path id="Vector_191" d="M212.773 264.754L251.079 406.349C251.549 408.083 252.536 409.634 253.909 410.793C255.283 411.953 256.977 412.666 258.765 412.838L431.182 429.405C432.587 429.54 434.004 429.337 435.315 428.812C436.625 428.287 437.791 427.456 438.714 426.388C439.637 425.32 440.291 424.046 440.621 422.673C440.95 421.3 440.946 419.868 440.609 418.497L398.66 247.702C398.161 245.672 396.958 243.884 395.266 242.657C393.573 241.43 391.501 240.843 389.416 241L220.614 253.628C219.318 253.729 218.06 254.114 216.93 254.757C215.8 255.4 214.826 256.284 214.077 257.347C213.328 258.409 212.823 259.624 212.598 260.905C212.372 262.185 212.432 263.5 212.773 264.754Z" fill="#9C9CA1"/>
<path id="Vector_192" d="M554.555 292.384C565.022 292.384 573.507 283.787 573.507 273.182C573.507 262.577 565.022 253.98 554.555 253.98C544.088 253.98 535.603 262.577 535.603 273.182C535.603 283.787 544.088 292.384 554.555 292.384Z" fill="white"/>
<path id="Vector_193" d="M570.118 238.154C570.118 238.154 574.113 250.034 562.326 255.03L560.818 257.666L568.202 264.952C568.202 264.952 577.305 248.343 576.318 242.445C576.318 242.445 574.909 236.455 570.118 238.154Z" fill="white"/>
<path id="Vector_194" d="M556.732 292.384C566.825 292.384 575.008 284.2 575.008 274.105C575.008 264.01 566.825 255.826 556.732 255.826C546.638 255.826 538.456 264.01 538.456 274.105C538.456 284.2 546.638 292.384 556.732 292.384Z" fill="#6C63FF"/>
<path id="Vector_195" d="M576.41 245.144L573.507 240.352L569.28 239.753C570.182 223.976 566.088 219.276 566.088 219.276L565.137 219.184L560.994 218.782L553.202 210.693V208.396C564.151 209.699 570.203 214.9 573.472 220.995C579.249 231.692 576.41 245.144 576.41 245.144Z" fill="#6C63FF"/>
<path id="Vector_196" opacity="0.1" d="M565.172 216.281V219.184L561.03 218.782L553.237 210.693C553.237 210.693 565.292 213.392 565.172 216.281Z" fill="black" stroke="#4C4981" stroke-miterlimit="10"/>
<path id="Vector_197" opacity="0.1" d="M576.41 245.144L573.507 240.352V221.023C579.249 231.692 576.41 245.144 576.41 245.144Z" fill="black" stroke="#4C4981" stroke-miterlimit="10"/>
<path id="Vector_198" d="M522.96 281.619C527.823 278.811 527.614 269.344 522.493 260.473C517.372 251.602 509.279 246.688 504.417 249.495C499.554 252.303 499.763 261.771 504.884 270.641C510.005 279.512 518.098 284.427 522.96 281.619Z" fill="white"/>
<path id="Vector_199" d="M516.432 264.008C521.554 272.879 527.838 278.805 522.977 281.624C518.116 284.443 503.954 283.033 498.832 274.155C493.71 265.276 498.36 253.015 503.222 250.196C508.083 247.378 511.303 255.115 516.432 264.008Z" fill="#6C63FF"/>
<path id="Vector_200" opacity="0.1" d="M562.037 200.095C562.037 228.443 542.641 255.763 514.297 255.763C500.685 255.763 487.63 250.355 478.004 240.727C468.379 231.1 462.971 218.043 462.971 204.429C462.971 190.814 468.379 177.757 478.004 168.13C487.63 158.503 500.685 153.094 514.297 153.094C542.641 153.122 562.037 171.739 562.037 200.095Z" fill="black"/>
<path id="Vector_201" d="M514.297 254.382C542.644 254.382 565.623 231.399 565.623 203.047C565.623 174.696 542.644 151.713 514.297 151.713C485.95 151.713 462.971 174.696 462.971 203.047C462.971 231.399 485.95 254.382 514.297 254.382Z" fill="#FFF1DB"/>
<path id="Vector_202" d="M509.788 180.301C515.896 182.549 519.511 188.863 524.992 192.379C532.742 197.312 542.831 196.036 551.68 193.598C556.612 192.252 561.769 190.61 566.624 192.104C567.338 192.42 568.125 192.533 568.899 192.428C569.956 192.125 570.477 190.956 570.823 189.913C576.825 172.014 574.127 151.741 565.067 135.182C562.727 130.912 559.923 126.782 556.062 123.816C553.019 121.483 549.44 119.954 545.832 118.65C539.24 116.282 532.422 114.599 525.485 113.626C524.26 113.404 523.009 113.363 521.772 113.506C520.074 113.781 518.552 114.697 517.038 115.515C510.55 118.993 503.355 120.947 496 121.23C486.136 121.603 474.864 119.278 467.262 125.605C458.102 133.195 460.385 147.999 454.446 158.302C450.515 165.116 442.934 170.062 441.687 177.821C441.362 180.192 441.513 182.604 442.13 184.917C445.033 196.854 456.588 206.099 468.903 206.317C470.794 206.461 472.688 206.073 474.37 205.197C475.473 204.444 476.446 203.519 477.252 202.456C485.319 192.9 494.549 174.692 509.788 180.301Z" fill="#444053"/>
<path id="Vector_203" opacity="0.1" d="M570.823 184.719C570.477 185.762 569.956 186.932 568.899 187.235C568.125 187.339 567.338 187.227 566.624 186.911C561.769 185.417 556.584 187.059 551.687 188.405C542.831 190.843 532.721 192.146 524.999 187.186C519.511 183.662 515.903 177.32 509.788 175.108C494.549 169.47 485.319 187.707 477.231 197.262C476.424 198.325 475.451 199.251 474.349 200.003C472.667 200.88 470.773 201.268 468.882 201.124C456.609 200.905 445.047 191.66 442.109 179.723C441.947 179.019 441.806 178.314 441.701 177.609C441.701 177.673 441.701 177.729 441.665 177.792C441.341 180.164 441.492 182.576 442.109 184.888C445.012 196.825 456.574 206.07 468.882 206.289C470.773 206.433 472.667 206.045 474.349 205.168C475.451 204.416 476.424 203.491 477.231 202.427C485.319 192.872 494.549 174.664 509.788 180.273C515.903 182.521 519.511 188.834 524.999 192.351C532.749 197.283 542.831 196.008 551.687 193.57C556.619 192.224 561.769 190.582 566.624 192.076C567.338 192.392 568.125 192.504 568.899 192.4C569.956 192.097 570.477 190.927 570.823 189.884C573.244 182.561 574.313 174.858 573.979 167.152C573.772 173.129 572.709 179.044 570.823 184.719Z" fill="black"/>
</g>
<defs>
<clipPath id="clip0">
<rect width="806" height="435" fill="white"/>
</clipPath>
</defs>
</svg>
