<svg width="252" height="207" viewBox="0 0 252 207" fill="none" xmlns="http://www.w3.org/2000/svg">
<g clip-path="url(#clip0)">
<path d="M104.687 66.0323L103.606 65.7734C103.312 65.4785 103.016 65.1857 102.718 64.895C102.534 64.7094 102.347 64.5283 102.161 64.3446C99.0793 61.3153 95.9545 58.3701 92.7863 55.509C89.6219 52.6471 86.4175 49.8736 83.1731 47.1886C83.0857 47.1236 83.0238 47.0301 82.9982 46.9243C82.9727 46.8185 82.985 46.7072 83.0331 46.6096C83.0402 46.597 83.0493 46.5856 83.06 46.5759C83.1336 46.4919 83.2574 46.4787 83.4053 46.5997C83.8029 46.9302 84.2032 47.2613 84.5997 47.5969C87.8467 50.3155 91.0563 53.1232 94.2284 56.02C97.3982 58.9153 100.526 61.896 103.612 64.9621C103.677 65.0258 103.742 65.0921 103.807 65.1558C104.101 65.4482 104.393 65.74 104.687 66.0323Z" fill="white"/>
<path d="M181.561 83.6956L27.5635 47.7416C26.9769 47.6051 26.3601 47.7067 25.8487 48.0239C25.3373 48.3411 24.9729 48.848 24.8357 49.4334L0.515487 153.601C0.379298 154.187 0.481463 154.803 0.799556 155.314C1.11765 155.825 1.62568 156.189 2.21212 156.326L156.21 192.28C156.53 192.355 156.862 192.36 157.184 192.294C157.505 192.228 157.809 192.093 158.073 191.898C158.095 191.883 158.116 191.867 158.135 191.849C158.305 191.718 158.454 191.563 158.577 191.388C158.751 191.149 158.874 190.877 158.94 190.589L183.261 86.4211C183.397 85.835 183.294 85.2188 182.976 84.7077C182.657 84.1967 182.148 83.8326 181.561 83.6956ZM158.309 190.442C158.237 190.75 158.076 191.03 157.845 191.247C157.641 191.437 157.392 191.574 157.121 191.644C156.871 191.707 156.609 191.709 156.357 191.65L2.35934 155.696C1.94042 155.597 1.57755 155.337 1.3503 154.972C1.12305 154.607 1.04998 154.167 1.14714 153.749L25.4674 49.5809C25.5655 49.1627 25.8259 48.8007 26.1912 48.5741C26.5566 48.3475 26.9972 48.2748 27.4163 48.3722L181.414 84.3262C181.834 84.4241 182.197 84.6842 182.425 85.0493C182.653 85.4144 182.726 85.8548 182.629 86.2736L158.309 190.442Z" fill="#3F3D56"/>
<path d="M181.393 92.9896L23.6002 56.1497L23.4528 56.781L181.245 93.621L181.393 92.9896Z" fill="#3F3D56"/>
<path d="M29.4946 55.1825C30.5425 55.4272 31.5899 54.7775 31.8341 53.7316C32.0783 52.6856 31.4268 51.6393 30.379 51.3947C29.3311 51.15 28.2837 51.7996 28.0395 52.8456C27.7953 53.8916 28.4468 54.9379 29.4946 55.1825Z" fill="#3F3D56"/>
<path d="M34.9495 56.4561C35.9973 56.7007 37.0447 56.0511 37.289 55.0051C37.5332 53.9591 36.8817 52.9128 35.8338 52.6682C34.786 52.4235 33.7386 53.0732 33.4943 54.1192C33.2501 55.1651 33.9016 56.2114 34.9495 56.4561Z" fill="#3F3D56"/>
<path d="M40.4042 57.7296C41.452 57.9742 42.4995 57.3246 42.7437 56.2786C42.9879 55.2326 42.3364 54.1864 41.2885 53.9417C40.2407 53.6971 39.1933 54.3467 38.9491 55.3927C38.7048 56.4387 39.3563 57.4849 40.4042 57.7296Z" fill="#3F3D56"/>
<path d="M138.687 98.4291L59.5318 79.9486C58.6571 79.7444 57.8992 79.2017 57.4248 78.4398C56.9505 77.678 56.7985 76.7595 57.0023 75.8863C57.2062 75.0131 57.7492 74.2569 58.5119 73.7838C59.2745 73.3108 60.1944 73.1598 61.0691 73.364L140.225 91.8446C141.099 92.0488 141.857 92.5915 142.332 93.3533C142.806 94.1152 142.958 95.0337 142.754 95.9069C142.55 96.78 142.007 97.5363 141.244 98.0093C140.482 98.4823 139.562 98.6334 138.687 98.4291ZM60.9509 73.8706C60.2107 73.6977 59.4324 73.8255 58.787 74.2258C58.1417 74.626 57.6822 75.2659 57.5097 76.0048C57.3373 76.7436 57.4658 77.5208 57.8672 78.1655C58.2686 78.8101 58.9099 79.2693 59.6501 79.4421L138.805 97.9226C139.546 98.0954 140.324 97.9677 140.969 97.5674C141.615 97.1672 142.074 96.5272 142.247 95.7884C142.419 95.0496 142.291 94.2723 141.889 93.6277C141.488 92.9831 140.846 92.5239 140.106 92.3511L60.9509 73.8706Z" fill="#3F3D56"/>
<path d="M57.0803 120.134L26.6359 113.026C25.4927 112.758 24.5025 112.048 23.8824 111.052C23.2622 110.056 23.0629 108.856 23.3281 107.714L26.6392 93.5317C26.907 92.3905 27.6173 91.4024 28.6143 90.7841C29.6113 90.1657 30.8136 89.9676 31.9574 90.2333L62.4017 97.3412C63.5449 97.6095 64.5352 98.3194 65.1553 99.3153C65.7754 100.311 65.9747 101.512 65.7095 102.653L62.3984 116.836C62.1306 117.977 61.4203 118.965 60.4233 119.583C59.4263 120.202 58.2241 120.4 57.0803 120.134Z" fill="#6C63FF"/>
<path d="M105.284 131.388L74.8396 124.28C73.6964 124.012 72.7061 123.302 72.086 122.306C71.4658 121.31 71.2665 120.11 71.5317 118.968L74.8429 104.786C75.1106 103.645 75.821 102.657 76.818 102.038C77.815 101.42 79.0172 101.222 80.161 101.488L110.605 108.595C111.749 108.864 112.739 109.574 113.359 110.57C113.979 111.565 114.178 112.766 113.913 113.908L110.602 128.09C110.334 129.231 109.624 130.219 108.627 130.837C107.63 131.456 106.428 131.654 105.284 131.388Z" fill="#6C63FF"/>
<path d="M153.488 142.642L123.043 135.534C121.9 135.266 120.91 134.556 120.29 133.56C119.669 132.564 119.47 131.364 119.735 130.222L123.046 116.04C123.314 114.899 124.025 113.911 125.022 113.292C126.019 112.674 127.221 112.476 128.365 112.742L158.809 119.85C159.952 120.118 160.942 120.828 161.563 121.824C162.183 122.82 162.382 124.02 162.117 125.162L158.806 139.344C158.538 140.485 157.828 141.473 156.831 142.092C155.834 142.71 154.631 142.908 153.488 142.642Z" fill="#6C63FF"/>
<path d="M50.1032 150.018L19.6589 142.91C18.5157 142.642 17.5254 141.932 16.9053 140.936C16.2852 139.94 16.0859 138.739 16.3511 137.598L19.6622 123.416C19.93 122.274 20.6403 121.286 21.6373 120.668C22.6343 120.05 23.8365 119.851 24.9803 120.117L55.4247 127.225C56.5679 127.493 57.5581 128.203 58.1783 129.199C58.7984 130.195 58.9977 131.396 58.7325 132.537L55.4214 146.72C55.1536 147.861 54.4433 148.849 53.4463 149.467C52.4493 150.085 51.247 150.284 50.1032 150.018Z" fill="#6C63FF"/>
<path d="M98.3069 161.272L67.8625 154.164C66.7193 153.896 65.729 153.186 65.1089 152.19C64.4888 151.194 64.2895 149.994 64.5547 148.852L67.8658 134.67C68.1336 133.529 68.8439 132.54 69.8409 131.922C70.8379 131.304 72.0402 131.106 73.184 131.371L103.628 138.479C104.772 138.747 105.762 139.457 106.382 140.453C107.002 141.449 107.201 142.65 106.936 143.791L103.625 157.974C103.357 159.115 102.647 160.103 101.65 160.721C100.653 161.34 99.4507 161.538 98.3069 161.272Z" fill="#6C63FF"/>
<path d="M146.51 172.526L116.066 165.418C114.923 165.15 113.933 164.44 113.313 163.444C112.692 162.448 112.493 161.248 112.758 160.106L116.069 145.924C116.337 144.783 117.048 143.795 118.045 143.176C119.042 142.558 120.244 142.36 121.388 142.626L151.832 149.733C152.975 150.002 153.965 150.712 154.585 151.708C155.206 152.703 155.405 153.904 155.14 155.046L151.829 169.228C151.561 170.369 150.85 171.357 149.853 171.975C148.856 172.594 147.654 172.792 146.51 172.526Z" fill="#6C63FF"/>
<path d="M196.579 112.644C201.202 113.724 205.824 110.857 206.902 106.242C207.98 101.626 205.105 97.0091 200.481 95.9295C195.857 94.85 191.235 97.7166 190.158 102.332C189.08 106.948 191.955 111.565 196.579 112.644Z" fill="#2F2E41"/>
<path d="M167.405 142.866C167.302 142.47 167.287 142.057 167.361 141.656C167.434 141.254 167.596 140.873 167.833 140.541C168.07 140.208 168.377 139.931 168.733 139.73C169.089 139.529 169.485 139.408 169.893 139.377L185.732 119.451L189.792 123.981L172.946 142.143C172.954 142.83 172.71 143.497 172.259 144.017C171.808 144.536 171.182 144.872 170.499 144.961C169.816 145.05 169.124 144.886 168.554 144.5C167.984 144.114 167.575 143.532 167.405 142.866Z" fill="#FFB8B8"/>
<path d="M181.933 121.7C181.922 121.521 181.949 121.341 182.014 121.173C182.079 121.005 182.179 120.853 182.308 120.727L186.812 116.335C187.369 115.602 188.196 115.12 189.11 114.994C190.023 114.869 190.95 115.11 191.686 115.666C192.423 116.221 192.909 117.045 193.038 117.958C193.167 118.87 192.928 119.795 192.375 120.532L189.332 126.058C189.245 126.216 189.126 126.353 188.981 126.46C188.836 126.567 188.67 126.642 188.493 126.679C188.317 126.717 188.135 126.716 187.959 126.676C187.783 126.637 187.617 126.56 187.474 126.451L182.426 122.62C182.283 122.511 182.164 122.373 182.079 122.214C181.994 122.055 181.944 121.88 181.933 121.7Z" fill="#6C63FF"/>
<path d="M202.671 153.441C202.304 153.261 201.981 153.002 201.724 152.683C201.468 152.365 201.285 151.994 201.188 151.597C201.091 151.2 201.082 150.787 201.162 150.386C201.242 149.986 201.409 149.608 201.651 149.279L196.894 124.274L202.979 124.171L205.741 148.782C206.268 149.226 206.614 149.846 206.713 150.527C206.813 151.208 206.658 151.901 206.28 152.475C205.901 153.049 205.325 153.465 204.66 153.643C203.995 153.821 203.287 153.749 202.671 153.441L202.671 153.441Z" fill="#FFB8B8"/>
<path d="M195.821 195.152L192.65 195.532L189.664 183.502L194.343 182.941L195.821 195.152Z" fill="#FFB8B8"/>
<path d="M190.276 194.899L196.391 194.166L196.856 198.011L186.891 199.205C186.83 198.7 186.869 198.188 187.006 197.698C187.143 197.209 187.375 196.751 187.69 196.351C188.004 195.951 188.394 195.617 188.838 195.368C189.282 195.119 189.77 194.959 190.276 194.899Z" fill="#2F2E41"/>
<path d="M189.429 186.491L182.836 164.441C182.772 164.228 182.767 164.002 182.82 163.786C182.873 163.569 182.982 163.371 183.137 163.212L190.098 156.041C190.263 155.871 190.473 155.751 190.704 155.695C190.935 155.639 191.176 155.65 191.401 155.726C191.626 155.802 191.825 155.94 191.974 156.125C192.124 156.309 192.218 156.531 192.246 156.767L195.607 185.184C195.645 185.493 195.565 185.806 195.384 186.059C195.202 186.313 194.932 186.489 194.627 186.554L190.897 187.358C190.717 187.397 190.531 187.395 190.352 187.353C190.136 187.303 189.936 187.197 189.775 187.046C189.613 186.894 189.493 186.703 189.429 186.491Z" fill="#2F2E41"/>
<path d="M195.636 113.24C199.077 114.044 202.517 111.91 203.319 108.475C204.121 105.04 201.982 101.603 198.54 100.8C195.099 99.9965 191.659 102.13 190.857 105.565C190.055 109.001 192.194 112.437 195.636 113.24Z" fill="#FFB8B8"/>
<path d="M181.647 133.126C179.276 121.118 185.64 116.203 188.486 114.647C189.306 114.198 190.264 114.067 191.175 114.281L199.953 116.33C200.583 116.477 201.165 116.783 201.645 117.218C202.124 117.653 202.483 118.203 202.69 118.815C202.896 119.428 202.942 120.083 202.824 120.718C202.706 121.353 202.426 121.948 202.013 122.445L193.41 132.79L181.67 133.243L181.647 133.126Z" fill="#6C63FF"/>
<path d="M196.288 128.415C196.145 128.306 196.026 128.167 195.941 128.008C195.856 127.85 195.807 127.674 195.795 127.495L195.408 121.218C195.218 120.317 195.392 119.378 195.894 118.606C196.396 117.834 197.184 117.292 198.085 117.099C198.987 116.906 199.929 117.078 200.704 117.577C201.48 118.076 202.025 118.862 202.222 119.761L204.424 125.676C204.487 125.845 204.512 126.025 204.499 126.205C204.486 126.384 204.434 126.559 204.347 126.716C204.26 126.874 204.14 127.011 203.995 127.118C203.85 127.225 203.684 127.3 203.508 127.337L197.308 128.644C197.132 128.681 196.949 128.68 196.773 128.641C196.597 128.601 196.432 128.524 196.288 128.415Z" fill="#6C63FF"/>
<path d="M175.057 193.402L171.947 192.675L173.263 180.354L177.854 181.426L175.057 193.402Z" fill="#FFB8B8"/>
<path d="M169.932 191.269L175.931 192.67L175.051 196.44L165.275 194.158C165.391 193.663 165.603 193.195 165.9 192.782C166.196 192.369 166.572 192.018 167.004 191.75C167.436 191.482 167.918 191.301 168.42 191.219C168.923 191.136 169.437 191.154 169.932 191.269Z" fill="#2F2E41"/>
<path d="M174.807 188.522L169.961 186.786C169.804 186.73 169.66 186.643 169.537 186.53C169.414 186.418 169.315 186.282 169.245 186.131C169.175 185.98 169.136 185.817 169.13 185.651C169.124 185.484 169.151 185.319 169.21 185.163L181.453 152.797C181.496 152.684 181.517 152.564 181.516 152.444L181.344 133.003C181.342 132.824 181.378 132.646 181.451 132.482C181.524 132.318 181.632 132.172 181.768 132.054C182.683 131.262 185.575 129.595 192.645 131.201L192.653 131.203C192.888 131.258 193.102 131.379 193.27 131.552C193.439 131.725 193.553 131.943 193.601 132.179L194.06 134.467C194.094 134.637 194.173 134.795 194.289 134.924C195.371 136.143 200.45 142.75 194.128 153.177C187.913 163.425 178.241 183.88 176.366 187.876C176.245 188.136 176.038 188.346 175.78 188.472C175.522 188.597 175.228 188.629 174.948 188.564C174.9 188.553 174.853 188.539 174.807 188.522Z" fill="#2F2E41"/>
<path d="M204.549 104.636C202.896 105.284 201.085 105.41 199.357 105C199.874 105.571 200.509 106.023 201.218 106.326C198.804 106.281 196.424 105.74 194.228 104.735C193.735 104.533 193.28 104.249 192.884 103.893C192.687 103.714 192.53 103.495 192.423 103.251C192.316 103.008 192.262 102.744 192.263 102.478C192.314 101.569 193.181 100.935 194.014 100.565C195.287 100.012 196.668 99.749 198.056 99.7941C199.443 99.8392 200.804 100.192 202.039 100.826C202.844 101.247 203.615 101.821 204.011 102.638C204.407 103.454 204.325 104.551 203.63 105.135L204.549 104.636Z" fill="#2F2E41"/>
<path d="M201.399 99.3382C200.742 98.9355 200.068 98.5163 199.619 97.8909C199.17 97.2654 199.001 96.3742 199.419 95.7286C199.822 95.1065 200.658 94.8836 201.392 94.9984C202.125 95.1133 202.782 95.5017 203.419 95.8825C203.218 95.3402 203.109 94.3547 203.051 93.3287C202.92 90.9876 206.065 89.6118 208.307 90.3095C208.373 90.33 208.437 90.3522 208.498 90.3759C210.719 91.2479 211.708 92.4024 212.923 94.4544C214.443 97.0215 214.833 100.098 214.879 103.078C214.925 106.059 214.662 109.053 215.015 112.014C215.367 114.974 216.424 117.988 218.653 119.973C219.88 121.035 221.375 121.74 222.975 122.012C224.576 122.283 226.219 122.11 227.727 121.511C227.624 122.751 227.23 123.949 226.576 125.008C225.922 126.066 225.028 126.956 223.965 127.605C222.902 128.254 221.701 128.643 220.459 128.742C219.217 128.841 217.969 128.646 216.816 128.173C213.644 126.872 211.622 123.605 210.917 120.255C210.212 116.905 210.616 113.434 211.036 110.037C211.456 106.64 211.887 103.176 211.233 99.8155C210.968 98.4555 210.448 97.0127 209.041 96.477C208.676 96.3267 208.272 96.3006 207.891 96.4027C207.509 96.5048 207.173 96.7296 206.933 97.0421C205.934 98.4362 207.814 100.253 206.911 101.593C206.723 101.85 206.465 102.047 206.169 102.162C205.872 102.276 205.549 102.304 205.237 102.241C204.164 102.063 203.437 101.256 202.756 100.482C201.362 98.8981 201.399 99.3382 201.399 99.3382Z" fill="#2F2E41"/>
<path d="M214.959 205.997L156.607 192.373C156.54 192.357 156.481 192.316 156.445 192.257C156.408 192.198 156.397 192.128 156.412 192.061C156.428 191.993 156.47 191.935 156.528 191.899C156.587 191.862 156.658 191.851 156.725 191.867L215.077 205.49C215.144 205.506 215.202 205.547 215.239 205.606C215.275 205.665 215.287 205.735 215.271 205.802C215.256 205.87 215.214 205.928 215.155 205.964C215.097 206.001 215.026 206.012 214.959 205.997Z" fill="#3F3D56"/>
</g>
<defs>
<clipPath id="clip0">
<rect width="221" height="160" fill="white" transform="translate(36.3771) rotate(13.1415)"/>
</clipPath>
</defs>
</svg>
