<svg width="140" height="148" viewBox="0 0 140 148" fill="none" xmlns="http://www.w3.org/2000/svg">
<g clip-path="url(#clip0)">
<path d="M70 148C108.66 148 140 146.392 140 144.408C140 142.424 108.66 140.816 70 140.816C31.3401 140.816 0 142.424 0 144.408C0 146.392 31.3401 148 70 148Z" fill="#E6E6E6"/>
<path d="M129.184 91.9197V92.7891C129.184 92.7891 130.744 98.3535 128.838 98.3535C126.932 98.3535 126.239 92.963 126.239 92.963V91.9197H129.184Z" fill="#FFB8B8"/>
<path d="M94.5289 72.0966L94.8755 70.7055C94.8755 70.7055 96.7815 66.3584 98.341 67.2278C99.9005 68.0972 97.6479 71.4011 97.6479 71.4011L97.3014 72.2705L94.5289 72.0966Z" fill="#FFB8B8"/>
<path d="M105.619 134.348L105.965 137.304L109.257 137.826V134L105.619 134.348Z" fill="#FFB8B8"/>
<path d="M123.813 133.479L124.159 137.826L127.971 137.304L127.278 133.131L123.813 133.479Z" fill="#FFB8B8"/>
<path d="M104.059 100.44L103.366 100.614L105.272 119.046V135.565L110.124 134.696L112.55 105.657L120 119.915L123.639 134.348L129.357 133.305L124.679 115.22L121.56 98.0057L104.059 100.44Z" fill="#2F2E41"/>
<path d="M107.525 136.261C107.525 136.261 105.965 135.217 105.445 135.913C104.926 136.608 102.673 140.086 102.673 140.086C102.673 140.086 97.1282 145.824 102.673 145.651C102.673 145.651 106.312 145.651 107.005 143.564C107.005 143.564 107.178 142.521 108.391 142.521C109.604 142.521 110.99 141.303 110.99 140.608C110.99 139.912 109.777 136.4 109.257 136.939C108.738 137.478 107.525 136.261 107.525 136.261Z" fill="#2F2E41"/>
<path d="M126.128 136.261C126.128 136.261 127.687 135.217 128.207 135.913C128.727 136.608 130.979 140.086 130.979 140.086C130.979 140.086 136.524 145.824 130.979 145.651C130.979 145.651 127.341 145.651 126.647 143.564C126.647 143.564 126.474 142.521 125.261 142.521C124.048 142.521 122.662 141.303 122.662 140.608C122.662 139.912 123.875 136.4 124.395 136.939C124.915 137.478 126.128 136.261 126.128 136.261Z" fill="#2F2E41"/>
<path d="M104.492 71.2092C107.018 71.2092 109.066 69.1542 109.066 66.6192C109.066 64.0842 107.018 62.0292 104.492 62.0292C101.966 62.0292 99.9185 64.0842 99.9185 66.6192C99.9185 69.1542 101.966 71.2092 104.492 71.2092Z" fill="#FFB8B8"/>
<path d="M104.146 70.2708L106.572 73.2268L110.903 69.5752L107.785 67.1409L104.146 70.2708Z" fill="#FFB8B8"/>
<path d="M105.445 73.3138L105.587 72.027L110.451 69.2223L117.059 68.5931C117.264 68.5736 117.47 68.5947 117.666 68.6552C117.862 68.7157 118.044 68.8143 118.202 68.9455C118.36 69.0767 118.491 69.2378 118.587 69.4197C118.682 69.6015 118.742 69.8006 118.761 70.0055L121.213 96.093L122.08 98.3535C122.08 98.3535 106.832 107.048 103.366 100.614L105.965 87.0508L100.594 76.7916L105.445 73.3138Z" fill="#D0CDE1"/>
<path d="M117.228 68.9667C117.334 68.949 117.438 68.9194 117.537 68.8784C117.855 68.7636 118.201 68.7548 118.524 68.8535C118.847 68.9522 119.129 69.1531 119.329 69.4261L127.105 80.0954L130.051 92.4413H125.892L123.12 84.0948L118.614 78.1826L117.228 68.9667Z" fill="#D0CDE1"/>
<path d="M101.98 76.4438L100.594 76.7916L96.4349 80.4432L97.8212 72.0967L94.3556 71.401L91.6699 85.399L93.5758 87.3116L104.406 82.8775L101.98 76.4438Z" fill="#D0CDE1"/>
<path d="M106.314 66.6042C106.314 66.6042 104.435 63.8355 103.36 64.7471C102.284 65.6588 99.2696 67.4469 98.6343 66.0315C97.9991 64.6161 100.44 62.023 102.283 61.4031C104.125 60.7832 107.361 59.9593 108.376 62.6929C108.986 64.4272 109.19 66.2796 108.971 68.1059L106.314 66.6042Z" fill="#2F2E41"/>
<path d="M106.504 67.1366C106.762 67.0424 106.834 66.5882 106.665 66.1221C106.496 65.656 106.15 65.3544 105.892 65.4486C105.634 65.5427 105.562 65.9969 105.731 66.463C105.9 66.9291 106.246 67.2307 106.504 67.1366Z" fill="#FFB8B8"/>
<path d="M85.1137 34.514H84.3185V12.6527C84.3185 10.9912 83.9924 9.34584 83.3588 7.81073C82.7251 6.27563 81.7964 4.8808 80.6256 3.70589C79.4548 2.53097 78.0649 1.59898 76.5352 0.963122C75.0054 0.327265 73.3659 -5.24137e-06 71.7102 0H25.5566C23.9008 -3.93101e-06 22.2613 0.327266 20.7316 0.963124C19.2019 1.59898 17.8119 2.53098 16.6411 3.70589C15.4703 4.88081 14.5416 6.27564 13.908 7.81074C13.2744 9.34584 12.9482 10.9912 12.9482 12.6527V132.586C12.9482 134.247 13.2744 135.892 13.908 137.427C14.5416 138.963 15.4703 140.357 16.6411 141.532C17.8119 142.707 19.2019 143.639 20.7316 144.275C22.2613 144.911 23.9008 145.238 25.5566 145.238H71.7102C73.3659 145.238 75.0054 144.911 76.5352 144.275C78.0649 143.639 79.4548 142.707 80.6256 141.532C81.7964 140.357 82.7251 138.963 83.3588 137.427C83.9924 135.892 84.3185 134.247 84.3185 132.586V50.0753H85.1137V34.514Z" fill="#3F3D56"/>
<path d="M72.2189 3.29182H66.1943C66.4713 3.97346 66.5771 4.71301 66.5022 5.44533C66.4274 6.17764 66.1742 6.88025 65.765 7.49125C65.3559 8.10225 64.8032 8.60289 64.1558 8.94907C63.5084 9.29526 62.7861 9.47635 62.0525 9.47641H35.6117C34.8782 9.47635 34.1559 9.29526 33.5084 8.94907C32.861 8.60289 32.3084 8.10225 31.8992 7.49125C31.49 6.88025 31.2369 6.17764 31.162 5.44532C31.0872 4.713 31.1929 3.97345 31.47 3.29181H25.843C24.6065 3.29181 23.3821 3.53621 22.2398 4.01106C21.0974 4.48591 20.0594 5.18191 19.1851 6.05932C18.3107 6.93673 17.6172 7.97837 17.144 9.12477C16.6708 10.2712 16.4272 11.4999 16.4272 12.7407V132.498C16.4272 133.738 16.6708 134.967 17.144 136.113C17.6172 137.26 18.3107 138.302 19.1851 139.179C20.0594 140.056 21.0974 140.752 22.2398 141.227C23.3821 141.702 24.6065 141.946 25.843 141.946H72.2189C73.4554 141.946 74.6797 141.702 75.8221 141.227C76.9645 140.752 78.0025 140.056 78.8768 139.179C79.7511 138.302 80.4447 137.26 80.9179 136.113C81.3911 134.967 81.6346 133.738 81.6346 132.498V12.7407C81.6346 11.4999 81.3911 10.2712 80.9179 9.12478C80.4447 7.97838 79.7511 6.93674 78.8768 6.05933C78.0025 5.18192 76.9645 4.48592 75.8221 4.01107C74.6797 3.53622 73.4554 3.29182 72.2189 3.29182Z" fill="white"/>
<path d="M55.4784 35.4633H39.0404V36.9952H55.4784V35.4633Z" fill="#6C63FF"/>
<path d="M67.6905 40.7626H39.0404V42.2945H67.6905V40.7626Z" fill="#E6E6E6"/>
<path d="M67.6625 46.0619H39.0404V47.5938H67.6625V46.0619Z" fill="#E6E6E6"/>
<path d="M35.6338 35.4861H23.4218V47.7412H35.6338V35.4861Z" fill="#6C63FF"/>
<path d="M55.4784 67.633H39.0404V69.1648H55.4784V67.633Z" fill="#6C63FF"/>
<path d="M67.6905 72.9323H39.0404V74.4641H67.6905V72.9323Z" fill="#E6E6E6"/>
<path d="M67.6625 78.2315H39.0404V79.7634H67.6625V78.2315Z" fill="#E6E6E6"/>
<path d="M35.6338 67.6557H23.4218V79.9108H35.6338V67.6557Z" fill="#6C63FF"/>
<path d="M55.4784 99.8026H39.0404V101.334H55.4784V99.8026Z" fill="#6C63FF"/>
<path d="M67.6905 105.102H39.0404V106.634H67.6905V105.102Z" fill="#E6E6E6"/>
<path d="M67.6625 110.401H39.0404V111.933H67.6625V110.401Z" fill="#E6E6E6"/>
<path d="M35.6338 99.8253H23.4218V112.08H35.6338V99.8253Z" fill="#6C63FF"/>
</g>
<defs>
<clipPath id="clip0">
<rect width="140" height="148" fill="white"/>
</clipPath>
</defs>
</svg>
